<?xml version="1.0" encoding="UTF-8" standalone="no"?>
<svg xmlns="http://www.w3.org/2000/svg" xmlns:xlink="http://www.w3.org/1999/xlink" style="clip-rule:evenodd;fill-rule:evenodd;stroke-linecap:round;stroke-linejoin:round;stroke-miterlimit:1.5" version="1.1" viewBox="0 0 603 185" height="185" width="603">
<defs>
  <g id="out">
    <rect fill="#777" height="80" width="20"/>
    <text transform="translate(15, 40) rotate(-90)" style="font-size:16px;font-family:sans-serif;text-align:center;text-anchor:middle;fill:#000;troke:none">OUT</text>
  </g>
</defs>
<rect fill="#333" height="80" width="420" y="105" x="180"/>
<use href="#out" y="105" x="180" />
<use href="#out" y="105" x="240">
  <animate repeatCount="indefinite" calcMode="discrete" dur="3s" begin="1s" values="240;200;220;240;260;280;300;320;340;360" attributeName="x"/>
</use>
<use href="#out" y="105" x="380" />
<use href="#out" y="105" x="500">
  <animate repeatCount="indefinite" calcMode="discrete" dur="30s" begin="1s" values="500;440;460;480;500;520;540;560;400;420" attributeName="x"/>
</use>
<use href="#out" y="105" x="580" />
<path style="fill:none;stroke:#fff;stroke-width:2px" d="M200,105 l0,-100 l 60,0 l0,100 l140,0;">
  <animate repeatCount="indefinite" dur="3s" begin="1s" calcMode="discrete" values="M200,105 l0,-100 l 60,0 l0,100 l140,0; M200,105 l0,-100 l 20,0 l0,100 l180,0; M200,105 l0,-100 l 40,0 l0,100 l160,0; M200,105 l0,-100 l 60,0 l0,100 l140,0; M200,105 l0,-100 l 80,0 l0,100 l120,0; M200,105 l0,-100 l100,0 l0,100 l100,0; M200,105 l0,-100 l120,0 l0,100 l 80,0; M200,105 l0,-100 l140,0 l0,100 l 60,0; M200,105 l0,-100 l160,0 l0,100 l 40,0; M200,105 l0,-100 l180,0 l0,100 l 20,0" attributeName="d"/>
</path>
<path style="fill:none;stroke:#fff;stroke-width:2px" d="M400,105 l0,-100 l120,0 l0,100 l 80,0">
  <animate repeatCount="indefinite" dur="30s" begin="1s" calcMode="discrete" values="M400,105 l0,-100 l120,0 l0,100 l 80,0; M400,105 l0,-100 l 60,0 l0,100 l140,0; M400,105 l0,-100 l 80,0 l0,100 l120,0; M400,105 l0,-100 l100,0 l0,100 l100,0; M400,105 l0,-100 l120,0 l0,100 l 80,0; M400,105 l0,-100 l140,0 l0,100 l 60,0; M400,105 l0,-100 l160,0 l0,100 l 40,0; M400,105 l0,-100 l180,0 l0,100 l 20,0; M400,105 l0,-100 l 20,0 l0,100 l180,0; M400,105 l0,-100 l 40,0 l0,100 l160,0" attributeName="d"/>
</path>
<path style="fill:none;stroke:#fff;stroke-width:1;stroke-miterlimit:1.5;stroke-dasharray:none;stroke-opacity:0.5" d="M 200,185 V 5 M 220,185 V 5 M 240,185 V 5 M 260,185 V 5 M 280,185 V 5 M 300,185 V 5 M 320,185 V 5 M 340,185 V 5 M 360,185 V 5 M 380,185 V 5 M 400,185 V 5 M 420,185 V 5 M 440,185 V 5 M 460,185 V 5 M 480,185 V 5 M 500,185 V 5 M 520,185 V 5 M 540,185 V 5 M 560,185 V 5 M 580,185 V 5 M 600,185 V 5 M 180,185 V 5"/>
</svg>