<?xml version="1.0" encoding="UTF-8" standalone="no"?><!DOCTYPE svg PUBLIC "-//W3C//DTD SVG 1.1//EN" "http://www.w3.org/Graphics/SVG/1.1/DTD/svg11.dtd"><svg width="720" height="405" viewBox="0 0 720 405" version="1.1" xmlns="http://www.w3.org/2000/svg" xmlns:xlink="http://www.w3.org/1999/xlink" xml:space="preserve" xmlns:serif="http://www.serif.com/" style="fill-rule:evenodd;clip-rule:evenodd;"><path id="a1" d="M0,405l20,0l0,-405l0.226,0l0,405l19.774,0l0,-405l0.616,0l0,405l19.384,0l0,-405l1.247,0l0,405l18.753,0l0,-405l2.157,0l0,405l17.843,0l0,-405l3.38,0l0,405l16.62,0l0,-405l4.934,0l0,405l15.066,0l0,-405l6.802,0l0,405l13.198,0l0,-405l8.905,0l0,405l11.095,0l0,-405l11.095,0l0,405l8.905,0l0,-405l13.198,0l0,405l6.802,0l0,-405l15.066,0l0,405l4.934,0l0,-405l16.62,0l0,405l3.38,0l0,-405l17.843,0l0,405l2.157,0l0,-405l18.753,0l0,405l1.247,0l0,-405l19.384,0l0,405l0.616,0l0,-405l19.774,0l0,405l0.226,-405l19.957,0l0.043,405l0,-405l15.842,0l0,405l4.158,0l0,-405l10.286,0l0,405l9.714,0l0,-405l7.946,0l0,405l12.054,0l0,-405l6.296,0l0,405l13.704,0l0,-405l5.031,0l0,405l14.969,0l0,-405l4.023,0l0,405l15.977,0l0,-405l3.203,0l0,405l16.797,0l0,-405l2.528,0l0,405l17.472,0l0,-405l1.969,0l0,405l18.031,0l0,-405l1.506,0l0,405l18.494,0l0,-405l1.125,0l0,405l18.875,0l0,-405l0.813,0l0,405l19.187,0l0,-405l0.562,0l0,405l19.438,0l0,-405l0.365,0l0,405l19.635,0l0,-405l0.215,0l0,405l79.785,0" style="fill:#888;fill-opacity:0.25;fill-rule:nonzero;"/><g><path d="M0,283c180,0 180,-200 360,-200c0,0 0,200 360,200l360,0" style="fill:none;stroke:#f00;stroke-width:8px;"/><path d="M-8,293c180,0 180,-200 360,-200c0,0 0,200 360,200l360,0" style="fill:none;stroke:#ff7d00;stroke-width:8px;"/><path d="M-16,303c180,0 180,-200 360,-200c0,0 0,200 360,200l360,0" style="fill:none;stroke:#ff0;stroke-width:8px;"/><path d="M-24,313c180,0 180,-200 360,-200c0,0 0,200 360,200l360,0" style="fill:none;stroke:#0f0;stroke-width:8px;"/><path d="M-32,323c180,0 180,-200 360,-200c0,0 0,200 360,200l360,0" style="fill:none;stroke:#007fff;stroke-width:8px;"/></g><g><path d="M421.217,183.901c7.984,2.551 14.074,5.849 13.591,7.361c-0.483,1.511 -7.357,0.667 -15.341,-1.885c-7.985,-2.551 -14.075,-5.849 -13.592,-7.361c0.483,-1.511 7.357,-0.667 15.342,1.885Z" style="fill:#75bbbd;"/><path d="M421.91,175.55c0,-0.837 -0.679,-1.516 -1.516,-1.516l-3.031,-1.212c-0.837,0 -1.516,0.679 -1.516,1.515l0,9.094c0,0.836 0.679,1.515 1.516,1.515l3.031,1.213c0.837,0 1.516,-0.679 1.516,-1.516l0,-9.093Z" style="fill:#44e;"/><path d="M419.467,167.763c0.772,-0.059 1.67,-1.315 2.443,0.239c0.169,0.341 0.97,0.38 1.102,0.79c0.112,0.344 -0.514,1.089 -0.514,1.396c0,1.673 -1.358,3.031 -3.031,3.031c-0.897,0 -2.108,-0.391 -2.663,-1.011c-0.48,-0.536 -0.241,-1.275 -0.369,-2.02c-0.236,-1.38 -0.333,-1.956 0.019,-2.332c0.263,-0.282 1.608,-0.969 2.425,-0.84c0.584,0.092 -0.031,0.794 0.588,0.747Z" style="fill:#00bb01;"/><path d="M421.052,170.23c1.638,0.341 2.784,1.504 2.557,2.596c-0.227,1.092 -1.742,1.701 -3.379,1.361c-1.638,-0.341 -2.784,-1.504 -2.557,-2.596c0.227,-1.092 1.742,-1.702 3.379,-1.361Z" style="fill:#fdd;"/><path d="M426.324,177.212c0.212,-0.515 -0.034,-1.106 -0.55,-1.318l-3.738,-1.537c-0.516,-0.212 -1.107,0.035 -1.319,0.551c-0.212,0.516 0.035,1.106 0.55,1.318l3.739,1.537c0.515,0.212 1.106,-0.035 1.318,-0.551Z" style="fill:#fdd;"/><path d="M417.538,173.331c-0.279,-0.483 -0.897,-0.649 -1.38,-0.37l-3.5,2.021c-0.483,0.279 -0.649,0.897 -0.37,1.38c0.279,0.483 0.897,0.649 1.38,0.37l3.5,-2.021c0.483,-0.279 0.649,-0.897 0.37,-1.38Z" style="fill:#fdd;"/><path d="M426.894,176.16c0.212,-0.516 -0.034,-1.107 -0.55,-1.319c-0.516,-0.212 -1.107,0.035 -1.319,0.551l-0.372,0.905c-0.212,0.516 0.035,1.107 0.551,1.319c0.515,0.212 1.106,-0.035 1.318,-0.551l0.372,-0.905Z" style="fill:#fdd;"/><path d="M413.675,175.064c-0.483,-0.279 -1.101,-0.113 -1.38,0.37c-0.279,0.483 -0.113,1.101 0.37,1.38l1.75,1.01c0.483,0.279 1.101,0.113 1.38,-0.369c0.279,-0.483 0.113,-1.102 -0.37,-1.381l-1.75,-1.01Z" style="fill:#fdd;"/><path d="M417.729,185.534c0.183,-0.527 -0.098,-1.103 -0.625,-1.285l-2.865,-0.99c-0.527,-0.182 -1.103,0.098 -1.285,0.625c-0.182,0.527 0.098,1.103 0.625,1.285l2.866,0.99c0.527,0.182 1.102,-0.098 1.284,-0.625Z" style="fill:#fdd;"/><path d="M424.297,187.864c0.182,-0.527 -0.098,-1.103 -0.625,-1.285l-2.865,-0.99c-0.527,-0.182 -1.103,0.098 -1.285,0.625c-0.182,0.527 0.098,1.103 0.625,1.285l2.865,0.99c0.527,0.182 1.103,-0.098 1.285,-0.625Z" style="fill:#fdd;"/></g></svg>