<?xml version="1.0" encoding="UTF-8" standalone="no"?>
<svg
   xmlns:dc="http://purl.org/dc/elements/1.1/"
   xmlns:cc="http://creativecommons.org/ns#"
   xmlns:rdf="http://www.w3.org/1999/02/22-rdf-syntax-ns#"
   xmlns:svg="http://www.w3.org/2000/svg"
   xmlns="http://www.w3.org/2000/svg"
   viewBox="0 0 2440.3333 484.64001"
   height="484.64001"
   width="2440.3333"
   xml:space="preserve"
   id="svg2"
   version="1.1"><metadata
     id="metadata8"><rdf:RDF><cc:Work
         rdf:about=""><dc:format>image/svg+xml</dc:format><dc:type
           rdf:resource="http://purl.org/dc/dcmitype/StillImage" /></cc:Work></rdf:RDF></metadata><defs
     id="defs6" /><g
     transform="matrix(1.3333333,0,0,-1.3333333,0,484.64)"
     id="g10"><g
       transform="scale(0.124813)"
       id="g12"><path
         id="path14"
         style="fill:#373795;fill-opacity:1;fill-rule:nonzero;stroke:none"
         d="m 14421,851.578 h -58.9 V 698.449 h -51.4 v 153.129 h -58.8 v 44.223 h 169.1 v -44.223" /><path
         id="path16"
         style="fill:#373795;fill-opacity:1;fill-rule:nonzero;stroke:none"
         d="m 14444,895.801 h 75.7 l 34,-131.567 h 0.5 l 34,131.567 h 75.8 V 698.449 h -48.4 v 149.813 h -0.5 l -41.5,-149.813 h -39.2 l -41.5,149.813 h -0.6 V 698.449 h -48.3 v 197.352" /><path
         id="path18"
         style="fill:#373795;fill-opacity:1;fill-rule:nonzero;stroke:none"
         d="m 3624.1,1752.29 v -143.21 h 3.49 c 28.58,58.64 73.52,101.26 134.83,127.85 61.31,26.62 128.69,39.93 202.24,39.93 81.67,0 152.8,-15.03 213.47,-45 60.6,-30 110.93,-70.51 151.13,-121.58 40.17,-51.12 70.43,-110.02 90.93,-176.73 20.4,-66.78 30.63,-137.6 30.63,-212.53 0,-74.94 -9.89,-145.8 -29.6,-212.57 -19.77,-66.735 -49.71,-124.981 -89.88,-174.704 -40.18,-49.691 -90.58,-88.859 -151.17,-117.457 -60.64,-28.582 -131.1,-42.922 -211.45,-42.922 -25.88,0 -54.83,2.723 -86.82,8.184 -32.02,5.469 -63.66,14.301 -94.94,26.57 -31.32,12.285 -61,29.012 -88.88,50.184 -27.94,21.093 -51.41,47.304 -70.49,78.758 h -3.49 V 291.535 H 3448.95 V 1752.29 Z m 621.7,-375.71 c -12.92,46.95 -32.59,88.81 -59.06,125.6 -26.5,36.77 -60.47,66.06 -101.92,87.84 -41.5,21.81 -90.07,32.68 -145.71,32.68 -58.46,0 -108.06,-11.6 -148.8,-34.74 -40.76,-23.15 -74.03,-53.44 -99.89,-90.87 -25.79,-37.41 -44.46,-80.05 -56.02,-127.69 -11.55,-47.69 -17.29,-96.03 -17.29,-145 0,-51.79 6.07,-101.81 18.31,-150.15 12.24,-48.37 31.61,-90.902 58.08,-127.672 26.49,-36.765 60.75,-66.41 102.89,-88.836 42.16,-22.508 93.13,-33.738 152.91,-33.738 59.75,0 109.66,11.535 149.76,34.695 40.06,23.176 72.35,53.813 96.82,91.973 24.4,38.105 42.08,81.648 52.97,130.708 10.85,49.02 16.3,99.39 16.3,151.17 0,48.99 -6.45,96.99 -19.35,144.03" /><path
         id="path20"
         style="fill:#373795;fill-opacity:1;fill-rule:nonzero;stroke:none"
         d="m 5344.14,763.195 c -79.1,-59.879 -178.68,-89.828 -298.78,-89.828 -84.61,0 -158.02,13.613 -220.09,40.817 -62.13,27.316 -114.32,65.433 -156.64,114.476 -42.34,49.035 -74.06,107.606 -95.22,175.77 -21.11,68.11 -33.02,142.36 -35.77,222.72 0,80.31 12.24,153.89 36.91,220.67 24.54,66.8 59.05,124.69 103.42,173.75 44.4,49.03 97.01,87.15 157.78,114.38 60.75,27.27 127.34,40.91 199.75,40.91 94.27,0 172.43,-19.52 234.61,-58.35 62.18,-38.92 112.03,-88.42 149.59,-148.43 37.53,-60.11 63.53,-125.65 77.87,-196.6 14.36,-71 20.17,-138.54 17.42,-202.67 h -791.7 c -1.36,-46.24 4.08,-90.1 16.34,-131.56 12.22,-41.508 31.93,-78.234 59.21,-110.18 27.22,-31.988 61.98,-57.445 104.21,-76.507 42.2,-19.036 91.91,-28.559 149.1,-28.559 73.53,0 133.79,17.027 180.75,51.109 46.95,34.098 77.94,85.965 92.94,155.567 h 171.87 c -23.24,-118.434 -74.4,-207.582 -153.57,-267.485 z m -42.39,677.995 c -15.64,36.71 -36.71,68.32 -63.25,94.84 -26.52,26.45 -57.83,47.55 -93.86,63.2 -36.07,15.65 -75.85,23.47 -119.37,23.47 -44.86,0 -85.39,-7.82 -121.41,-23.47 -36.07,-15.65 -66.98,-37.05 -92.84,-64.22 -25.8,-27.16 -46.2,-58.84 -61.15,-94.86 -15,-36.02 -23.82,-74.42 -26.58,-115.2 h 606.06 c -2.76,40.78 -11.96,79.52 -27.6,116.24" /><path
         id="path22"
         style="fill:#373795;fill-opacity:1;fill-rule:nonzero;stroke:none"
         d="m 5795.73,1752.29 v -167.78 h 3.27 c 72.59,128.2 187.67,192.35 345.29,192.35 69.87,0 128.1,-9.58 174.74,-28.73 46.55,-19.06 84.23,-45.69 112.98,-79.74 28.81,-34.12 49.04,-74.69 60.68,-121.78 11.61,-47.04 17.44,-99.22 17.44,-156.51 V 694.414 h -175.17 v 715.676 c 0,65.34 -19.1,117.15 -57.4,155.36 -38.3,38.14 -90.89,57.25 -157.84,57.25 -53.31,0 -99.48,-8.17 -138.44,-24.56 -38.97,-16.35 -71.41,-39.53 -97.36,-69.53 -25.95,-30 -45.43,-65.06 -58.4,-105.26 -13.01,-40.24 -19.48,-84.19 -19.48,-131.92 V 694.414 H 5630.88 V 1752.29 h 164.85" /><path
         id="path24"
         style="fill:#373795;fill-opacity:1;fill-rule:nonzero;stroke:none"
         d="m 6641.73,2322.82 h 503.23 l 380.22,-1117.98 h 4.55 l 359.77,1117.98 h 503.13 V 697.098 H 8057.97 V 1849.21 h -4.48 L 7654.98,697.098 H 7379.49 L 6981.02,1837.79 h -4.54 V 697.098 H 6641.73 V 2322.82" /><path
         id="path26"
         style="fill:#373795;fill-opacity:1;fill-rule:nonzero;stroke:none"
         d="M 9068.21,2322.82 H 9434.8 L 10042.7,697.098 H 9671.58 L 9548.61,1059.15 H 8940.72 L 8813.13,697.098 h -362 z m -34.2,-997.34 h 421.29 l -204.96,596.58 h -4.54 l -211.79,-596.58" /><path
         id="path28"
         style="fill:#373795;fill-opacity:1;fill-rule:nonzero;stroke:none"
         d="m 10631.9,1548.65 -523.6,774.17 h 414.3 l 318.8,-519.15 330.1,519.15 h 391.7 l -521.5,-776.47 567,-849.252 h -425.8 l -355.2,562.352 -362,-562.352 h -403 l 569.2,851.552" /><path
         id="path30"
         style="fill:#373795;fill-opacity:1;fill-rule:nonzero;stroke:none"
         d="m 1663.43,899.25 c -563.7,20.547 -1332.684,286.55 -1492.192,670.83 -137.9802,349.37 -1.023,756.43 649.61,1044.94 385.912,166.32 969.922,213.25 1419.472,170.59 638.41,-60.45 1246.32,-401.86 1247.17,-402.9 v -478.32 l -0.46,-32.18 c 0,0 -197.93,185.49 -445.18,334.67 -232.81,140.61 -446.29,239.89 -869.43,280.39 -99.02,9.45 -267.73,32.25 -540.85,-6.88 -110.36,-15.99 -265.86,-28.03 -615.85,-186.89 -113.822,-55.8 -217.943,-115.8 -298.896,-185.23 -42.418,-36.41 -99.504,-87.59 -140.316,-130.78 -99.805,-129.48 -152.805,-226.53 -127.52,-402.52 29.246,-132.36 86.266,-215.64 250.309,-342.22 71.219,-55.02 79.551,-54.68 111.137,-71.5 294.236,-157.31 529.386,-215.312 865.396,-258.789" /><path
         id="path32"
         style="fill:#373795;fill-opacity:1;fill-rule:nonzero;stroke:none"
         d="m 1693.76,2420.84 c 564.86,2.32 1366.01,-231.7 1574.5,-608.47 182.52,-342.84 98.22,-754.51 -513.62,-1068.679 C 2391.08,562.145 1814.65,491.594 1360.76,515.832 716.277,550.234 66.043,866.07 65.082,866.953 L 3.64844,1344.08 0,1376.24 c 0,0 221.172,-176.96 486.98,-315.74 250.266,-130.812 475.965,-221.082 903.24,-244.281 99.92,-5.391 271.17,-21.344 538.47,28.929 108.04,20.317 261.58,38.688 590.26,211.392 106.33,60.3 202.51,124.36 274.3,196.98 37.66,37.98 88.07,91.31 123.22,136.01 82.89,133.2 123.27,232.11 75.37,406.68 -46.18,130.85 -113.68,211.57 -293.63,331.15 -78.03,51.95 -86.32,51.22 -119.98,66.83 -313.65,144.83 -555.68,193.08 -896.4,222.9" /><path
         id="path34"
         style="fill:#373895;fill-opacity:1;fill-rule:nonzero;stroke:none"
         d="M 11902.2,2855.93 V 56.293" /><path
         id="path36"
         style="fill:none;stroke:#373795;stroke-width:112.58599854;stroke-linecap:round;stroke-linejoin:miter;stroke-miterlimit:4;stroke-dasharray:none;stroke-opacity:1"
         d="M 11902.2,2855.93 V 56.293" /><path
         id="path38"
         style="fill:#373795;fill-opacity:1;fill-rule:nonzero;stroke:none"
         d="m 12275,701.82 h 356.145 v 1619.7 H 12275 Z" /><path
         id="path40"
         style="fill:#373795;fill-opacity:1;fill-rule:nonzero;stroke:none"
         d="m 12944.2,2321.52 h 356.1 V 1001.27 h 789.5 V 701.82 h -1145.6 v 1619.7" /></g></g></svg>