<?xml version="1.0" encoding="UTF-8" standalone="no"?><!DOCTYPE svg PUBLIC "-//W3C//DTD SVG 1.1//EN" "http://www.w3.org/Graphics/SVG/1.1/DTD/svg11.dtd"><svg width="470" height="405" viewBox="0 0 470 405" version="1.1" xmlns="http://www.w3.org/2000/svg" xmlns:xlink="http://www.w3.org/1999/xlink" xml:space="preserve" style="fill-rule:evenodd;clip-rule:evenodd;stroke-linejoin:round;stroke-miterlimit:1.41421;"><g><path id="path30" d="M224.475,335.665c-73.871,-2.693 -174.645,-37.552 -195.548,-87.91c-18.082,-45.785 -0.134,-99.129 85.13,-136.937c50.573,-21.796 127.106,-27.946 186.018,-22.356c83.662,7.922 163.327,52.663 163.438,52.799l0,62.683l-0.06,4.217c0,0 -25.938,-24.308 -58.34,-43.857c-30.509,-18.427 -58.485,-31.437 -113.936,-36.745c-12.977,-1.238 -35.086,-4.226 -70.877,0.902c-14.463,2.095 -34.841,3.673 -80.706,24.491c-14.916,7.313 -28.561,15.175 -39.169,24.274c-5.559,4.772 -13.04,11.479 -18.388,17.138c-13.08,16.969 -20.025,29.687 -16.712,52.75c3.833,17.345 11.305,28.259 32.803,44.847c9.333,7.21 10.425,7.165 14.564,9.37c38.559,20.615 69.375,28.216 113.408,33.913" style="fill:#373795;fill-rule:nonzero;"/><path id="path32" d="M228.45,136.265c74.023,-0.304 179.012,30.363 206.334,79.738c23.918,44.928 12.871,98.877 -67.309,140.048c-47.643,23.791 -123.183,33.036 -182.664,29.86c-84.458,-4.508 -169.669,-45.898 -169.795,-46.014l-8.051,-62.526l-0.478,-4.214c0,0 28.984,23.19 63.817,41.377c32.797,17.142 62.374,28.972 118.367,32.012c13.095,0.707 35.537,2.797 70.566,-3.791c14.158,-2.663 34.279,-5.07 77.352,-27.702c13.934,-7.903 26.538,-16.297 35.946,-25.814c4.935,-4.977 11.541,-11.966 16.148,-17.824c10.862,-17.455 16.154,-30.417 9.877,-53.294c-6.052,-17.148 -14.898,-27.726 -38.48,-43.397c-10.225,-6.808 -11.312,-6.712 -15.723,-8.757c-41.103,-18.98 -72.82,-25.303 -117.471,-29.211" style="fill:#373795;fill-rule:nonzero;"/></g><path d="M161.821,3.42c-2.011,0.063 -4.176,0.805 -6.632,2.743c-6.017,-2.32 -11.85,-3.126 -17.067,1.597c-8.056,-1.044 -10.673,1.112 -12.657,3.629c-1.768,-0.037 -13.232,-1.818 -18.49,6.024c-13.211,-1.563 -17.387,7.771 -12.656,16.476c-2.698,4.177 -5.494,8.304 0.816,16.267c-2.232,4.435 -0.848,9.247 4.41,15.07c-1.388,6.235 1.34,10.633 6.233,14.062c-0.915,8.532 7.824,13.493 10.434,15.26c1.002,4.972 3.09,9.663 13.072,12.257c1.647,7.409 7.646,8.688 13.455,10.243c-19.201,11.161 -35.667,25.846 -35.555,61.878l-2.813,5.017c-22.016,13.389 -41.825,56.423 -10.85,91.4c2.024,10.949 5.417,18.814 8.438,27.518c4.519,35.072 34.01,51.495 41.788,53.437c11.399,8.683 23.538,16.921 39.966,22.692c15.486,15.971 32.263,22.058 49.132,22.048c0.248,0 0.499,0.003 0.747,0c16.869,0.011 33.645,-6.076 49.132,-22.048c16.427,-5.771 28.567,-14.009 39.966,-22.692c7.778,-1.942 37.269,-18.365 41.788,-53.437c3.021,-8.704 6.414,-16.569 8.438,-27.518c30.974,-34.98 11.166,-78.016 -10.851,-91.405l-2.817,-5.017c0.112,-36.029 -16.354,-50.714 -35.555,-61.878c5.809,-1.554 11.809,-2.834 13.455,-10.243c9.982,-2.594 12.071,-7.285 13.073,-12.257c2.61,-1.767 11.349,-6.728 10.434,-15.26c4.892,-3.429 7.62,-7.828 6.232,-14.062c5.259,-5.823 6.643,-10.634 4.41,-15.07c6.311,-7.96 3.511,-12.086 0.817,-16.264c4.728,-8.704 0.555,-18.039 -12.661,-16.475c-5.256,-7.842 -16.717,-6.061 -18.489,-6.025c-1.984,-2.517 -4.6,-4.673 -12.656,-3.628c-5.216,-4.724 -11.05,-3.918 -17.066,-1.597c-7.145,-5.638 -11.873,-1.119 -17.273,0.59c-8.65,-2.827 -10.627,1.045 -14.877,2.621c-9.434,-1.993 -12.3,2.347 -16.823,6.928l-5.26,-0.104c-14.228,8.385 -21.297,25.458 -23.802,34.236c-2.507,-8.779 -9.559,-25.853 -23.785,-34.236l-5.26,0.104c-4.528,-4.581 -7.395,-8.921 -16.828,-6.928c-4.25,-1.576 -6.222,-5.448 -14.878,-2.621c-3.544,-1.121 -6.804,-3.453 -10.642,-3.333l0.007,0.001Z" style="fill-rule:nonzero;"/><path d="M133.493,40.309c37.749,19.462 59.695,35.205 71.717,48.613c-6.157,24.677 -38.276,25.803 -50.02,25.111c2.404,-1.119 4.411,-2.46 5.122,-4.52c-2.947,-2.094 -13.396,-0.221 -20.691,-4.319c2.802,-0.581 4.113,-1.146 5.424,-3.214c-6.892,-2.198 -14.316,-4.093 -18.682,-7.734c2.356,0.029 4.556,0.527 7.633,-1.607c-6.173,-3.327 -12.76,-5.963 -17.878,-11.048c3.192,-0.079 6.633,-0.032 7.633,-1.206c-5.65,-3.5 -10.417,-7.393 -14.363,-11.651c4.466,0.539 6.353,0.075 7.433,-0.703c-4.271,-4.374 -9.677,-8.068 -12.254,-13.459c3.316,1.143 6.35,1.581 8.537,-0.1c-1.451,-3.274 -7.669,-5.206 -11.249,-12.857c3.491,0.339 7.194,0.762 7.935,0c-1.621,-6.602 -4.401,-10.314 -7.128,-14.159c7.472,-0.111 18.793,0.029 18.28,-0.603l-4.62,-4.721c7.299,-1.965 14.767,0.316 20.189,2.009c2.434,-1.921 -0.043,-4.35 -3.013,-6.83c6.202,0.828 11.807,2.254 16.874,4.219c2.706,-2.445 -1.758,-4.889 -3.918,-7.333c9.583,1.818 13.643,4.373 17.678,6.931c2.928,-2.806 0.168,-5.191 -1.808,-7.633c7.226,2.676 10.947,6.131 14.866,9.541c1.328,-1.793 3.375,-3.107 0.904,-7.433c5.13,2.957 8.994,6.442 11.852,10.346c3.174,-2.021 1.891,-4.785 1.908,-7.332c5.332,4.337 8.715,8.952 12.857,13.459c0.834,-0.608 1.565,-2.668 2.21,-5.926c12.719,12.34 30.692,43.421 4.62,55.744c-22.189,-18.3 -48.689,-31.602 -78.056,-41.58l0.008,-0.005Z" style="fill:#75a928;fill-rule:nonzero;"/><path d="M333.788,40.309c-37.745,19.463 -59.689,35.202 -71.712,48.613c6.157,24.677 38.276,25.803 50.02,25.111c-2.404,-1.119 -4.411,-2.46 -5.122,-4.52c2.947,-2.094 13.396,-0.221 20.691,-4.319c-2.802,-0.581 -4.113,-1.146 -5.424,-3.214c6.892,-2.198 14.316,-4.093 18.682,-7.734c-2.356,0.029 -4.556,0.527 -7.633,-1.607c6.173,-3.327 12.761,-5.963 17.878,-11.048c-3.191,-0.079 -6.632,-0.032 -7.633,-1.206c5.65,-3.5 10.417,-7.393 14.363,-11.651c-4.466,0.539 -6.352,0.075 -7.432,-0.703c4.271,-4.374 9.676,-8.068 12.254,-13.459c-3.317,1.143 -6.351,1.581 -8.538,-0.1c1.451,-3.274 7.669,-5.206 11.249,-12.857c-3.491,0.339 -7.194,0.762 -7.935,0c1.624,-6.605 4.404,-10.317 7.131,-14.162c-7.472,-0.111 -18.793,0.029 -18.28,-0.603l4.62,-4.721c-7.299,-1.965 -14.767,0.316 -20.189,2.009c-2.434,-1.921 0.043,-4.35 3.013,-6.83c-6.202,0.828 -11.807,2.254 -16.873,4.219c-2.707,-2.444 1.757,-4.888 3.917,-7.332c-9.583,1.818 -13.643,4.372 -17.678,6.93c-2.927,-2.806 -0.168,-5.191 1.808,-7.633c-7.226,2.676 -10.947,6.131 -14.866,9.542c-1.328,-1.793 -3.375,-3.107 -0.904,-7.433c-5.13,2.957 -8.994,6.441 -11.852,10.345c-3.174,-2.021 -1.891,-4.785 -1.908,-7.332c-5.332,4.337 -8.715,8.952 -12.857,13.459c-0.834,-0.607 -1.565,-2.668 -2.21,-5.926c-12.719,12.34 -30.692,43.421 -4.62,55.744c22.177,-18.304 48.676,-31.604 78.045,-41.582l-0.005,0Z" style="fill:#75a928;fill-rule:nonzero;"/><path d="M279.355,291.59c0,0.073 0.001,0.146 0.001,0.22c0,22.873 -20.412,41.695 -45.217,41.695c-24.805,0 -45.217,-18.822 -45.217,-41.695c0,-0.074 0,-0.147 0.001,-0.22c-0.001,-0.073 -0.001,-0.147 -0.001,-0.22c0,-22.873 20.412,-41.695 45.217,-41.695c24.805,0 45.217,18.822 45.217,41.695c0,0.073 -0.001,0.147 -0.001,0.22Z" style="fill:#bc1142;fill-rule:nonzero;"/><path d="M207.975,172.481c18.61,12.193 22.016,40.247 7.544,62.146c-14.471,21.9 -41.693,29.887 -60.303,17.695c-18.61,-12.193 -22.016,-40.247 -7.544,-62.146c14.471,-21.9 41.694,-29.887 60.303,-17.695Z" style="fill:#bc1142;fill-rule:nonzero;"/><path d="M258.544,170.259c-18.61,12.193 -22.015,40.246 -7.543,62.146c14.471,21.899 41.693,29.887 60.303,17.694c18.61,-12.192 22.015,-40.246 7.544,-62.145c-14.472,-21.9 -41.694,-29.887 -60.304,-17.695Z" style="fill:#bc1142;fill-rule:nonzero;"/><path d="M114.338,192.55c20.227,-5.422 6.828,83.683 -9.63,76.372c-18.104,-14.561 -23.935,-57.205 9.63,-76.372l0,0Z" style="fill:#bc1142;fill-rule:nonzero;"/><path d="M348.099,191.439c-20.23,-5.421 -6.829,83.689 9.629,76.378c18.104,-14.563 23.935,-57.211 -9.629,-76.378l0,0Z" style="fill:#bc1142;fill-rule:nonzero;"/><path d="M279.371,125.083c34.908,-5.894 63.955,14.846 62.783,52.699c-1.148,14.512 -75.644,-50.538 -62.783,-52.699l0,0Z" style="fill:#bc1142;fill-rule:nonzero;"/><path d="M182.921,123.972c-34.911,-5.894 -63.956,14.85 -62.783,52.7c1.148,14.511 75.644,-50.539 62.783,-52.7l0,0Z" style="fill:#bc1142;fill-rule:nonzero;"/><path d="M233.065,115.144c-20.835,-0.541 -40.83,15.464 -40.879,24.747c-0.058,11.28 16.473,22.83 41.021,23.122c25.068,0.18 41.064,-9.244 41.145,-20.885c0.092,-13.189 -22.799,-27.187 -41.287,-26.984l0,0Z" style="fill:#bc1142;fill-rule:nonzero;"/><path d="M234.338,346.456c18.165,-0.793 42.539,5.851 42.587,14.664c0.301,8.558 -22.106,27.895 -43.792,27.521c-22.46,0.969 -44.483,-18.398 -44.195,-25.11c-0.336,-9.843 27.348,-17.527 45.4,-17.075l0,0Z" style="fill:#bc1142;fill-rule:nonzero;"/><path d="M167.243,294.222c12.933,15.581 18.828,42.955 8.036,51.025c-10.211,6.16 -35.007,3.623 -52.631,-21.696c-11.887,-21.245 -10.355,-42.865 -2.009,-49.216c12.48,-7.602 31.763,2.666 46.605,19.887l-0.001,0Z" style="fill:#bc1142;fill-rule:nonzero;"/><path d="M298.843,289.283c-13.993,16.39 -21.784,46.284 -11.577,55.911c9.76,7.48 35.961,6.435 55.315,-20.42c14.053,-18.036 9.344,-48.156 1.317,-56.155c-11.924,-9.223 -29.043,2.58 -45.055,20.66l0,0.004Z" style="fill:#bc1142;fill-rule:nonzero;"/><g><path id="path301" d="M224.475,335.665c-73.871,-2.693 -174.645,-37.552 -195.548,-87.91c10.099,-10.228 16.757,-9.996 36.398,-0.641c3.833,17.345 11.305,28.259 32.803,44.847c9.333,7.21 10.425,7.165 14.564,9.37c38.559,20.615 69.375,28.216 113.408,33.913" style="fill:#373795;fill-rule:nonzero;"/><path id="path321" d="M367.475,356.051c-47.643,23.791 -123.183,33.036 -182.664,29.86c-84.458,-4.508 -169.669,-45.898 -169.795,-46.014l-8.051,-62.526l-0.478,-4.214c0,0 28.984,23.19 63.817,41.377c32.797,17.142 62.374,28.972 118.367,32.012c13.095,0.707 35.537,2.797 70.566,-3.791c14.158,-2.663 34.279,-5.07 77.352,-27.702c13.934,-7.903 26.538,-16.297 35.946,-25.814c4.935,-4.977 11.541,-11.966 16.148,-17.824" style="fill:#373795;fill-rule:nonzero;"/></g></svg>
