<?xml version="1.0" encoding="UTF-8" standalone="no"?><!DOCTYPE svg PUBLIC "-//W3C//DTD SVG 1.1//EN" "http://www.w3.org/Graphics/SVG/1.1/DTD/svg11.dtd"><svg width="740" height="130" viewBox="0 0 740 130" version="1.1" xmlns="http://www.w3.org/2000/svg" xmlns:xlink="http://www.w3.org/1999/xlink" xml:space="preserve" xmlns:serif="http://www.serif.com/" style="fill-rule:evenodd;clip-rule:evenodd;stroke-linejoin:round;stroke-miterlimit:1.41421;"><text x="-0.734px" y="65.837px" style="font-family:'ArialMT', 'Arial', sans-serif;font-size:16px;fill:#fff;">&quot;Hello W<tspan x="60.664px 69.563px " y="65.837px 65.837px ">or</tspan>ld!____&quot;</text><path d="M142.312,63.8l0,-4.2l26,0l0,-3.9l6,6l-6,6l0,-3.9l-26,0Z" style="fill:#fff;"/><path d="M207.791,19.8l4.2,0l0,10l3.9,0l-6,6l-6,-6l3.9,0l0,-10Z" style="fill:#fff;"/><path d="M245.512,63.8l0,-4.2l26,0l0,-3.9l6,6l-6,6l0,-3.9l-26,0Z" style="fill:#fff;"/><text x="286.473px" y="67.665px" style="font-family:'Menlo-Regular', 'Menlo', monospace;font-size:16px;fill:#fff;">63 7c 77 7b f2 6b 6f c5 30 01 67 2b fe d7 ab 76</text><g transform="matrix(1,0,0,1,-114.146,-109.275)"><text x="116.67px" y="226.912px" style="font-family:'ArialMT', 'Arial', sans-serif;font-size:16px;fill:#fff;">&quot;Hello</text><text x="163.256px" y="226.912px" style="font-family:'ArialMT', 'Arial', sans-serif;font-size:16px;fill:#0f0;">w</text><text x="174.81px" y="226.912px" style="font-family:'ArialMT', 'Arial', sans-serif;font-size:16px;fill:#fff;">orld!____&quot;</text></g><text x="285.989px" y="119.465px" style="font-family:'Menlo-Regular', 'Menlo', monospace;font-size:16px;fill:#0f0;">ca 82 c9 7d fa 59 47 f0 ad d4 a2 af 9c a4 72 c0</text><text x="191.074px" y="11.453px" style="font-family:'ArialMT', 'Arial', sans-serif;font-size:16px;fill:#fff;">&quot;Key&quot;</text><g><rect x="184.312" y="45.8" width="51.2" height="31.8" style="fill:#ffbf7f;"/><text x="194.336px" y="67.448px" style="font-family:'ArialMT', 'Arial', sans-serif;font-size:16px;">AES</text></g><g><rect x="184.312" y="97.6" width="51.2" height="31.8" style="fill:#ffbf7f;"/><text x="194.336px" y="119.248px" style="font-family:'ArialMT', 'Arial', sans-serif;font-size:16px;">AES</text></g><path d="M142.312,115.6l0,-4.2l26,0l0,-3.9l6,6l-6,6l0,-3.9l-26,0Z" style="fill:#fff;"/><path d="M245.512,115.6l0,-4.2l26,0l0,-3.9l6,6l-6,6l0,-3.9l-26,0Z" style="fill:#fff;"/></svg>