<svg clip-rule="evenodd" fill-rule="evenodd" height="256" stroke-linecap="round" stroke-linejoin="round" stroke-miterlimit="1.5" viewBox="0 0 256 256" width="256" xmlns="http://www.w3.org/2000/svg"><path clip-rule="evenodd" d="m194 15-12 12c14.3 14.3 22.4 33.7 22.4 54s-8 39.7-22.4 54l12 12c17.5-17.5 27.3-41.2 27.3-66s-9.8-48.5-27.3-66zm-18 18-12 12c9.6 9.6 14.9 22.5 14.9 36s-5.4 26.4-14.9 36l12 12c12.7-12.7 19.9-30 19.9-48s-7.2-35.3-19.9-48zm-18 18-12 12c4.8 4.8 7.5 11.2 7.5 18s-2.7 13.2-7.5 18l12 12c8-8 12.4-18.8 12.4-30s-4.5-22-12.4-30zm-21.5 54.1v55.8l-8.7 19.6-8.3-19.7v-55.7c2.7.9 5.5 1.5 8.5 1.5s5.8-.5 8.5-1.5zm37.3 56.1-28.6 64.6h19.5l10.3-23.2h4.4l6.1 23.2h19.9l-9-25.5s20.3-3 20.9-20.8c-.7-19.1-18.3-18.3-18.3-18.3h-25.3zm12.9 12.4h6.9s5.5.7 5.5 5.9-3.6 8.9-10.8 9.6c-3.5 0-7.2 0-8.5 0l6.9-15.4zm-94.5-12.4 35.7 79.8 36.8-79.8h-19.5l-17.3 39.1-16.4-39.1h-19.2zm-29.6 0-26.2 64.6h19l4.7-11.2h27l5.2 11.2h19.3l-29.1-64.6h-19.7zm9.9 18.3 9.2 22.2h-17.4zm72.4-98.5a17 17 0 0 1 -17 17 17 17 0 0 1 -17-17 17 17 0 0 1 17-17 17 17 0 0 1 17 17zm-82.9-66c-36.4 36.4-36.4 95.6 0 132l12-12c-29.9-29.9-29.9-78.1 0-108zm18 18c-26.4 26.4-26.4 69.6 0 96l12-12c-20-20-20-52 0-72zm18 18c-16.5 16.5-16.5 43.5 0 60l12-12c-10-10-10-26 0-36z" fill="#fff" fill-rule="evenodd"/></svg>