<svg height="128" width="128" xmlns="http://www.w3.org/2000/svg" xmlns:xlink="http://www.w3.org/1999/xlink"><linearGradient id="a"><stop offset="0" stop-color="#282828"/><stop offset="1" stop-color="#282828" stop-opacity="0"/></linearGradient><linearGradient id="b"><stop offset="0" stop-color="#686868"/><stop offset="1" stop-color="#fff" stop-opacity="0"/></linearGradient><linearGradient id="c"><stop offset="0" stop-color="#b3b3b3"/><stop offset="0" stop-color="#d9d9d9" stop-opacity=".5"/><stop offset="1" stop-color="#fff" stop-opacity="0"/></linearGradient><linearGradient id="d"><stop offset="0" stop-color="#868686"/><stop offset="0" stop-color="#a8a8a8"/><stop offset="0" stop-color="#cbcbcb"/><stop offset="1" stop-color="#fff"/></linearGradient><radialGradient id="e" cx="20.4" cy="22.5" gradientTransform="matrix(.4 0 0 1.4 6.4 -.1)" gradientUnits="userSpaceOnUse" r="15.2" xlink:href="#c"/><radialGradient id="f" cx="20.4" cy="22.5" gradientTransform="matrix(.5 0 0 1.7 5 -5.1)" gradientUnits="userSpaceOnUse" r="15.2" xlink:href="#c"/><radialGradient id="g" cx="20.4" cy="22.5" gradientTransform="matrix(.6 0 0 1.9 2.4 -9.4)" gradientUnits="userSpaceOnUse" r="15.2" xlink:href="#c"/><radialGradient id="h" cx="8" cy="232" gradientTransform="matrix(7.5 0 0 .5 4 -2)" gradientUnits="userSpaceOnUse" r="7.5" xlink:href="#a"/><radialGradient id="i" cx="8" cy="232" gradientTransform="matrix(7.5 0 0 .7 4 -34.2)" gradientUnits="userSpaceOnUse" r="7.5" xlink:href="#a"/><radialGradient id="j" cx="8" cy="232" gradientTransform="matrix(7.5 0 0 .5 4 0)" gradientUnits="userSpaceOnUse" r="7.5" xlink:href="#a"/><radialGradient id="k" cx="21.6" cy="9" gradientTransform="matrix(-2.8 0 0 2.1 139.5 -3.6)" gradientUnits="userSpaceOnUse" r="6.1" xlink:href="#b"/><radialGradient id="l" cx="21.6" cy="9" gradientTransform="matrix(3.1 0 0 2.1 -16 -3.1)" gradientUnits="userSpaceOnUse" r="6.1" xlink:href="#b"/><linearGradient id="m" gradientTransform="matrix(2.2 0 0 1.8 -.1 2.3)" gradientUnits="userSpaceOnUse" x1="33.2" x2="33.2" xlink:href="#c" y1="24.4" y2="-13.2"/><linearGradient id="n" gradientTransform="matrix(2.2 0 0 2 -1.5 -2.2)" gradientUnits="userSpaceOnUse" x1="33.2" x2="33.2" xlink:href="#c" y1="24.4" y2="-13.2"/><linearGradient id="o" gradientTransform="matrix(1.6 0 0 2.5 -.1 0)" gradientUnits="userSpaceOnUse" x1="38.8" x2="38.8" xlink:href="#c" y1="9.6" y2="7.6"/><radialGradient id="p" cx="21.6" cy="9" gradientTransform="matrix(-2.4 0 0 1.7 129.1 -.1)" gradientUnits="userSpaceOnUse" r="6.1" xlink:href="#b"/><radialGradient id="q" cx="21.6" cy="9" gradientTransform="matrix(2.4 0 0 1.7 -.4 0)" gradientUnits="userSpaceOnUse" r="6.1" xlink:href="#b"/><linearGradient id="r" gradientTransform="matrix(1.6 0 0 2.5 -.1 0)" gradientUnits="userSpaceOnUse" x1="38.4" x2="39.7" xlink:href="#c" y1="11.2" y2="6.1"/><linearGradient id="s" gradientTransform="matrix(1.6 0 0 2.4 -.1 2)" gradientUnits="userSpaceOnUse" x1="36" x2="36" xlink:href="#c" y1="1.6" y2="11.7"/><linearGradient id="t" gradientTransform="matrix(2.1 0 0 1.8 2.3 -1)" gradientUnits="userSpaceOnUse" spreadMethod="pad" x1="27" x2="27" xlink:href="#c" y1="68.7" y2="45"/><linearGradient id="u" gradientTransform="matrix(2.2 0 0 1.8 -.1 -1)" gradientUnits="userSpaceOnUse" spreadMethod="reflect" x1="17.7" x2="17.4" xlink:href="#d" y1="60.4" y2="62.8"/><linearGradient id="v" gradientTransform="matrix(2.2 0 0 1.8 -.1 -1)" gradientUnits="userSpaceOnUse" spreadMethod="reflect" x1="24.3" x2="24.6" xlink:href="#d" y1="44" y2="45.9"/><linearGradient id="w" gradientTransform="matrix(2.2 0 0 1.8 -.1 -1)" gradientUnits="userSpaceOnUse" spreadMethod="reflect" x1="29.1" x2="29.1" xlink:href="#d" y1="46.4" y2="47.3"/><linearGradient id="x" gradientTransform="matrix(2.2 0 0 1.8 -.1 4.4)" gradientUnits="userSpaceOnUse" spreadMethod="reflect" x1="29.6" x2="44.7" y1="52.6" y2="52.6"><stop offset="0" stop-color="#707070"/><stop offset="1" stop-color="#b1b1b1"/></linearGradient><g fill-rule="evenodd"><path d="m64.4 2c-20.1 0-36.3 16.2-36.3 36.2v40.3h10.1v-40.3c0-14.5 11.7-26.1 26.2-26.1s26.1 11.6 26.1 26.1v40.3h10.1v-40.3c0-20-16.2-36.2-36.2-36.2z" fill="#282828"/><path d="m64.4 4.6c-19 0-34.3 16.3-34.3 34.9v37.6c0 14.1 8.8 26 21.3 31-8.9-4.1-15.2-12.8-15.2-23.1v-47.4c0-14.3 11.6-26.7 26.1-26.7h4.1c14.5 0 26.1 12.4 26.1 26.7v47.4c0 10.3-6.2 19-15.2 23.1 12.5-5 21.3-16.9 21.3-31v-37.6c0-18.6-15.3-34.9-34.2-34.9z" fill="url(#s)" opacity=".7"/><path d="m64.4 2.9c-19.6 0-35.3 15.6-35.3 34.9v39.1c0 14.7 9.1 27.2 21.9 32.4-9.2-4.3-15.6-13.4-15.6-24.1v-49.4c0-14.8 12-29.1 26.9-29.1h4.1c15 0 27 14.3 27 29.1v49.4c0 10.7-6.5 19.8-15.7 24.1 12.8-5.2 21.9-17.7 21.9-32.4v-39.1c0-19.3-15.7-34.9-35.2-34.9z" fill="url(#r)" opacity=".5"/><path d="m49.5 12c-5.5 3.4-8.5 9.2-7.9 11.1.6 2.1 4.4-7.2 15.3-10.1 8.3-2.2 0-5.6-7.4-1z" fill="url(#q)" opacity=".8"/><path d="m79.2 11.9c5.5 3.4 8.5 9.2 7.9 11.1-.6 2.1-4.4-7.2-15.2-10.1-8.4-2.2 0-5.6 7.3-1z" fill="url(#p)" opacity=".8"/><path d="m64.4 6.3c-19 0-34.3 13-34.3 31.9v38.3c0 14.3 8.8 26.5 21.3 31.6-8.9-4.1-15.2-13-15.2-23.6v-48.3c0-14.5 11.6-26.2 26.1-26.2h4.1c14.5 0 26.1 11.7 26.1 26.2v48.3c0 10.6-6.2 19.5-15.2 23.6 12.5-5.1 21.3-17.3 21.3-31.6v-38.3c0-18.9-15.3-31.9-34.2-31.9z" fill="url(#o)" opacity=".5"/><path d="m64.4 4c-26.8 0-33 23.4-33 33.9 0 31.6 2.1 31.6 2.1 0 0-23.2 16.4-32.4 30.9-32.4 14.4 0 30.8 10.1 30.8 32.4 0 31.6 2.1 31.6 2.1 0 0-10.5-6.2-33.9-32.9-33.9z" fill="url(#n)" opacity=".8"/><path d="m64.4 7.1c-26.2 0-32.2 22.3-32.2 32 0 29 2 29 2 0 0-21.3 16.1-30.6 30.2-30.6s30.2 10.1 30.2 30.6c0 29 2 29 2 0 0-9.7-6.1-32-32.2-32z" fill="url(#m)" opacity=".6"/><g fill="#fff"><path d="m37 16.5c-2.9 5.2 3 1.9 4.4.3 3.8-4.7 10.3-8.1 16.1-9.2 4.8-.9 5.5-2.8 1.5-3.1-7.8-.6-19.3 7-22 12z" opacity=".8"/><path d="m32.6 25.2c.3 2.5 5.3-5.8 9.2-9.8 4.8-4.8 12-8.1 15.5-8.6 6.2-.8 3.2-3.8-.7-3-14.1 2.8-24.8 14.8-24 21.4z" opacity=".6"/><path d="m91.6 16.5c2.9 5.2-3 1.9-4.4.2-3.9-4.6-10.4-8-16.1-9-4.8-.9-6.2-2.8-2.2-3.1 7.8-.7 19.9 6.8 22.7 11.9z" opacity=".8"/><path d="m95.8 24.9c-.3 2.6-5.3-5.8-9.2-9.7-4.8-4.7-12-8.1-15.5-8.5-6.2-.8-3.3-3.7.6-3.1 14.1 2.3 24.9 14.8 24.1 21.3z" opacity=".6"/></g><path d="m49 11.1c-7.1 4.1-11 11-10.3 13.3.9 2.5 5.9-8.6 20-12 10.8-2.7 0-6.8-9.7-1.3z" fill="url(#l)" opacity=".4"/><path d="m79.5 10.9c6.6 4.2 10.3 11.2 9.5 13.5-.7 2.5-5.3-8.7-18.3-12.2-10.1-2.7 0-6.8 8.8-1.3z" fill="url(#k)" opacity=".4"/><path d="m120.7 124.8c0 2.2-25.2 4-56.3 4-31.2 0-56.4-1.8-56.4-4s25.2-4 56.4-4c31.1 0 56.3 1.8 56.3 4z" fill="url(#j)" opacity=".4"/><path d="m120.7 121.8c0 2.7-25.2 5-56.3 5-31.2 0-56.4-2.3-56.4-5 0-2.8 25.2-5.1 56.4-5.1 31.1 0 56.3 2.3 56.3 5.1z" fill="url(#i)" opacity=".4"/><path d="m120.7 122.8c0 2.2-25.2 4-56.3 4-31.2 0-56.4-1.8-56.4-4 0-2.3 25.2-4.1 56.4-4.1 31.1 0 56.3 1.8 56.3 4.1z" fill="url(#h)" opacity=".4"/><rect fill="url(#x)" height="66.3" rx=".5" width="80.5" x="24.1" y="57.4"/><rect fill="url(#w)" height="66.3" opacity="0" rx=".5" width="80.5" x="24.1" y="57.4"/><rect fill="url(#v)" height="66.3" opacity="0" rx=".5" width="80.5" x="24.1" y="57.4"/><rect fill="url(#u)" height="66.2" opacity="0" rx=".5" width="80.5" x="24.1" y="57.4"/><path d="m26.6 57.4c1.8 2.1 18.2 3.7 38.7 3.7 20.2 0 36.3-1.6 38.5-3.7-.1 0-.1 0-.1 0z" fill="#f4f4f4" opacity=".5"/><g transform="matrix(1.7 0 0 2 4.4 1.5)"><path d="m14 30.8c-.5 2.6-1 19.3.7 22.8 1.6 3.5 1.4-16.6 5.2-19.8 4-3.2-5.5-5.5-5.9-3z" fill="url(#e)" opacity=".4"/><path d="m13.7 30.9c-.5 3.1-1 22.6.8 26.8 1.9 4 1.6-19.5 6.1-23.2 4.5-3.8-6.4-6.5-6.9-3.6z" fill="url(#f)" opacity=".3"/><path d="m13.2 31.1c-.6 3.4-1.3 25.3 1 30 2.3 4.6 2-21.9 7.6-26 5.6-4.2-8-7.3-8.6-4z" fill="url(#g)" opacity=".2"/></g><g transform="matrix(-1.7 0 0 2 124.3 1.5)"><path d="m14 30.8c-.5 2.6-1 19.3.7 22.8 1.6 3.5 1.4-16.6 5.2-19.8 4-3.2-5.5-5.5-5.9-3z" fill="url(#e)" opacity=".4"/><path d="m13.7 30.9c-.5 3.1-1 22.6.8 26.8 1.9 4 1.6-19.5 6.1-23.2 4.5-3.8-6.4-6.5-6.9-3.6z" fill="url(#f)" opacity=".3"/><path d="m13.2 31.1c-.6 3.4-1.3 25.3 1 30 2.3 4.6 2-21.9 7.6-26 5.6-4.2-8-7.3-8.6-4z" fill="url(#g)" opacity=".2"/></g><path d="m103.1 114.7v7.9c0 .6-.4 1-1 1h-75.5c-.6 0-1-.4-1-1v-28c0 29.5 77.5-20.9 77.5 20.1z" fill="url(#t)" opacity=".2"/><path d="m25.6 123.6c1.9-2.1 18.2-3.8 38.7-3.8 20.2 0 36.3 1.7 38.5 3.8 0 0 0 0-.1 0z" opacity=".5"/></g></svg>