<?xml version="1.0" encoding="UTF-8" standalone="no"?><!DOCTYPE svg PUBLIC "-//W3C//DTD SVG 1.1//EN" "http://www.w3.org/Graphics/SVG/1.1/DTD/svg11.dtd"><svg width="586" height="332" viewBox="0 0 586 332" version="1.1" xmlns="http://www.w3.org/2000/svg" xmlns:xlink="http://www.w3.org/1999/xlink" xml:space="preserve" xmlns:serif="http://www.serif.com/" style="fill-rule:evenodd;clip-rule:evenodd;stroke-linecap:round;stroke-linejoin:round;stroke-miterlimit:1.5;"><g><rect x="61.939" y="160.4" width="462" height="75.8" style="fill:#ffbf7f;"/><text x="177.829px" y="201.156px" style="font-family:'Menlo-Regular', 'Menlo', monospace;font-size:16px;">48 65 6c 6c 6f 20 57 6f 72 6c 64 21</text><text x="177.665px" y="182.556px" style="font-family:'Menlo-Regular', 'Menlo', monospace;font-size:16px;">eb 9f 77 81 b7 34 ca 72 a7 19 4a 28</text><text x="177.586px" y="225.956px" style="font-family:'Menlo-Regular', 'Menlo', monospace;font-size:16px;">a3 fa 1b ed d8 14 9d 1d d5 75 2e 09</text><path d="M513.891,207.591l-335.265,0" style="fill:none;stroke:#000;stroke-width:1px;"/><text x="71.204px" y="201.195px" style="font-family:'ArialMT', 'Arial', sans-serif;font-size:16px;">&quot;Hello World!&quot;</text><text x="130.478px" y="182.556px" style="font-family:'ArialMT', 'Arial', sans-serif;font-size:16px;">&quot;Key&quot;</text><text x="151.423px" y="213.42px" style="font-family:'ArialMT', 'Arial', sans-serif;font-size:8px;fill-opacity:0.494118;">XOR</text></g><text x="-0.734px" y="67.419px" style="font-family:'ArialMT', 'Arial', sans-serif;font-size:16px;fill:#fff;">&quot;Hello World!&quot;</text><path d="M106.725,63.886l0,-4.2l26,0l0,-3.9l6,6l-6,6l0,-3.9l-26,0Z" style="fill:#fff;"/><path d="M171.645,19.8l4.2,0l0,10l3.9,0l-6,6l-6,-6l3.9,0l0,-10Z" style="fill:#fff;"/><path d="M208.738,63.886l0,-4.2l26,0l0,-3.9l6,6l-6,6l0,-3.9l-26,0Z" style="fill:#fff;"/><g transform="matrix(1,0,0,1,-81.5115,-107.629)"><text x="84.035px" y="226.912px" style="font-family:'ArialMT', 'Arial', sans-serif;font-size:16px;fill:#fff;">&quot;Hello <tspan style="fill:#0f0;">w</tspan>orld!&quot;</text></g><g transform="matrix(1,0,0,1,-49.5089,-107.186)"><text x="299.215px" y="226.801px" style="font-family:'Menlo-Regular', 'Menlo', monospace;font-size:16px;fill:#fff;">a3 fa 1b ed d8 14 <tspan style="fill:#0f0;">bd</tspan> 1d d5 75 2e 09</text></g><text x="249.706px" y="67.751px" style="font-family:'Menlo-Regular', 'Menlo', monospace;font-size:16px;fill:#fff;">a3 fa 1b ed d8 14 9d 1d d5 75 2e 09</text><text x="154.288px" y="11.453px" style="font-family:'ArialMT', 'Arial', sans-serif;font-size:16px;fill:#fff;">&quot;Key&quot;</text><g><rect x="61.939" y="256.2" width="462" height="75.8" style="fill:#ffbf7f;"/><g transform="matrix(1,0,0,1,-123.275,138.503)"><text x="301.103px" y="158.453px" style="font-family:'Menlo-Regular', 'Menlo', monospace;font-size:16px;">48 65 6c 6c 6f 20 <tspan style="fill:#f00;">77</tspan> 6f 72 6c 64 21</text></g><text x="177.665px" y="278.356px" style="font-family:'Menlo-Regular', 'Menlo', monospace;font-size:16px;">eb 9f 77 81 b7 34 ca 72 a7 19 4a 28</text><g transform="matrix(1,0,0,1,-121.628,94.9555)"><text x="299.215px" y="226.801px" style="font-family:'Menlo-Regular', 'Menlo', monospace;font-size:16px;">a3 fa 1b ed d8 14 <tspan style="fill:#f00;">bd</tspan> 1d d5 75 2e 09</text></g><path d="M513.891,303.391l-335.265,0" style="fill:none;stroke:#000;stroke-width:1px;"/><g transform="matrix(1,0,0,1,-12.0551,140.007)"><text x="86.517px" y="156.988px" style="font-family:'ArialMT', 'Arial', sans-serif;font-size:16px;">&quot;Hello <tspan style="fill:#f00;">w</tspan>orld!&quot;</text></g><text x="130.478px" y="278.356px" style="font-family:'ArialMT', 'Arial', sans-serif;font-size:16px;">&quot;Key&quot;</text><text x="151.423px" y="309.22px" style="font-family:'ArialMT', 'Arial', sans-serif;font-size:8px;fill-opacity:0.494118;">XOR</text></g><g><rect x="148.732" y="45.836" width="50" height="31.9" style="fill:#ffbf7f;"/><text x="157.474px" y="67.498px" style="font-family:'ArialMT', 'Arial', sans-serif;font-size:16px;">RC4</text></g><g><rect x="148.732" y="97.7" width="50" height="31.9" style="fill:#ffbf7f;"/><text x="157.474px" y="119.363px" style="font-family:'ArialMT', 'Arial', sans-serif;font-size:16px;">RC4</text></g><path d="M106.725,115.75l0,-4.2l26,0l0,-3.9l6,6l-6,6l0,-3.9l-26,0Z" style="fill:#fff;"/><path d="M208.738,115.75l0,-4.2l26,0l0,-3.9l6,6l-6,6l0,-3.9l-26,0Z" style="fill:#fff;"/></svg>
