<?xml version="1.0" encoding="UTF-8" standalone="no"?><!DOCTYPE svg PUBLIC "-//W3C//DTD SVG 1.1//EN" "http://www.w3.org/Graphics/SVG/1.1/DTD/svg11.dtd"><svg width="600" height="350" viewBox="0 0 600 350" version="1.1" xmlns="http://www.w3.org/2000/svg" xmlns:xlink="http://www.w3.org/1999/xlink" xml:space="preserve" xmlns:serif="http://www.serif.com/" style="fill-rule:evenodd;clip-rule:evenodd;stroke-linecap:round;stroke-linejoin:round;stroke-miterlimit:1.5;"><g><g><g style="filter:url(#_Effect1);"><g><g opacity="0.5"><path d="M100,84l80,-80l80,80l-80,80l-80,-80l-80,80l-80,-80l80,-80l80,80Z" style="fill:none;"/><clipPath id="_clip2"><path d="M100,84l80,-80l80,80l-80,80l-80,-80l-80,80l-80,-80l80,-80l80,80Z"/></clipPath><g clip-path="url(#_clip2)"><g><circle cx="100" cy="84" r="33.941" style="fill:none;stroke:#000;stroke-width:16.97px;"/><circle cx="100" cy="84" r="59.397" style="fill:none;stroke:#000;stroke-width:16.97px;"/><circle cx="100" cy="84" r="84.853" style="fill:none;stroke:#000;stroke-width:16.97px;"/></g></g><circle cx="100" cy="84" r="16.971"/><path id="path3540" d="M34.554,164.181l-26.195,64.608l18.962,0l4.692,-11.241l26.977,0l5.18,11.241l19.255,0l-29.127,-64.608l-19.744,0Zm9.872,18.278l9.188,22.187l-17.398,0l8.21,-22.187Z" style="fill-rule:nonzero;"/><path id="path4328" d="M64.146,164.181l35.651,79.819l36.825,-79.819l-19.476,0l-17.349,39.097l-16.421,-39.097l-19.23,0Z" style="fill-rule:nonzero;"/><path id="path2890" d="M145.785,164.181l-28.639,64.608l19.451,0l10.337,-23.19l4.447,0l6.133,23.19l19.94,0l-8.993,-25.511c0,0 20.341,-2.983 20.917,-20.819c-0.656,-19.057 -18.278,-18.278 -18.278,-18.278l-25.315,0Zm12.902,12.413l6.94,0c0,0 5.473,0.66 5.473,5.865c0,5.205 -3.616,8.894 -10.849,9.579c-3.506,0 -7.172,0 -8.491,0l6.927,-15.444Z" style="fill-rule:nonzero;"/><path d="M108.485,108.06l0,55.84l-8.688,19.579l-8.282,-19.72l0,-55.699c2.654,0.942 5.51,1.455 8.485,1.455c2.975,0 5.831,-0.513 8.485,-1.455Z"/></g></g></g><path d="M100,80l80,-80l80,80l-80,80l-80,-80l-80,80l-80,-80l80,-80l80,80Z" style="fill:none;"/><clipPath id="_clip3"><path d="M100,80l80,-80l80,80l-80,80l-80,-80l-80,80l-80,-80l80,-80l80,80Z"/></clipPath><g clip-path="url(#_clip3)"><g><circle cx="100" cy="80" r="33.941" style="fill:none;stroke:#fff;stroke-width:16.97px;"/><circle cx="100" cy="80" r="59.397" style="fill:none;stroke:#fff;stroke-width:16.97px;"/><circle cx="100" cy="80" r="84.853" style="fill:none;stroke:#fff;stroke-width:16.97px;"/></g></g><circle cx="100" cy="80" r="16.971" style="fill:#fff;"/><path id="path35401" serif:id="path3540" d="M34.554,160.181l-26.195,64.608l18.962,0l4.692,-11.241l26.977,0l5.18,11.241l19.255,0l-29.127,-64.608l-19.744,0Zm9.872,18.278l9.188,22.187l-17.398,0l8.21,-22.187Z" style="fill:#fff;fill-rule:nonzero;"/><path id="path43281" serif:id="path4328" d="M64.146,160.181l35.651,79.819l36.825,-79.819l-19.476,0l-17.349,39.097l-16.421,-39.097l-19.23,0Z" style="fill:#fff;fill-rule:nonzero;"/><path id="path28901" serif:id="path2890" d="M145.785,160.181l-28.639,64.608l19.451,0l10.337,-23.19l4.447,0l6.133,23.19l19.94,0l-8.993,-25.511c0,0 20.341,-2.983 20.917,-20.819c-0.656,-19.057 -18.278,-18.278 -18.278,-18.278l-25.315,0Zm12.902,12.413l6.94,0c0,0 5.473,0.66 5.473,5.865c0,5.205 -3.616,8.894 -10.849,9.579c-3.506,0 -7.172,0 -8.491,0l6.927,-15.444Z" style="fill:#fff;fill-rule:nonzero;"/><path d="M108.485,104.06l0,55.84l-8.688,19.579l-8.282,-19.72l0,-55.699c2.654,0.942 5.51,1.455 8.485,1.455c2.975,0 5.831,-0.513 8.485,-1.455Z" style="fill:#fff;"/></g></g><g><g><g style="filter:url(#_Effect4);"><g><g opacity="0.5"><path d="M500,84l80,-80l80,80l-80,80l-80,-80l-80,80l-80,-80l80,-80l80,80Z" style="fill:none;"/><clipPath id="_clip5"><path d="M500,84l80,-80l80,80l-80,80l-80,-80l-80,80l-80,-80l80,-80l80,80Z"/></clipPath><g clip-path="url(#_clip5)"><g><circle cx="500" cy="84" r="33.941" style="fill:none;stroke:#000;stroke-width:16.97px;"/><circle cx="500" cy="84" r="59.397" style="fill:none;stroke:#000;stroke-width:16.97px;"/><circle cx="500" cy="84" r="84.853" style="fill:none;stroke:#000;stroke-width:16.97px;"/></g></g><circle cx="500" cy="84" r="16.971"/><path id="path35402" serif:id="path3540" d="M434.554,164.181l-26.195,64.608l18.962,0l4.692,-11.241l26.977,0l5.18,11.241l19.255,0l-29.127,-64.608l-19.744,0Zm9.872,18.278l9.188,22.187l-17.398,0l8.21,-22.187Z" style="fill-rule:nonzero;"/><path id="path43282" serif:id="path4328" d="M464.146,164.181l35.651,79.819l36.825,-79.819l-19.476,0l-17.349,39.097l-16.421,-39.097l-19.23,0Z" style="fill-rule:nonzero;"/><path id="path28902" serif:id="path2890" d="M545.785,164.181l-28.639,64.608l19.451,0l10.337,-23.19l4.447,0l6.133,23.19l19.94,0l-8.993,-25.511c0,0 20.341,-2.983 20.917,-20.819c-0.656,-19.057 -18.278,-18.278 -18.278,-18.278l-25.315,0Zm12.902,12.413l6.94,0c0,0 5.473,0.66 5.473,5.865c0,5.205 -3.616,8.894 -10.849,9.579c-3.506,0 -7.172,0 -8.491,0l6.927,-15.444Z" style="fill-rule:nonzero;"/><path d="M508.485,108.06l0,55.84l-8.688,19.579l-8.282,-19.72l0,-55.699c2.654,0.942 5.51,1.455 8.485,1.455c2.975,0 5.831,-0.513 8.485,-1.455Z"/></g></g></g><path d="M500,80l80,-80l80,80l-80,80l-80,-80l-80,80l-80,-80l80,-80l80,80Z" style="fill:none;"/><clipPath id="_clip6"><path d="M500,80l80,-80l80,80l-80,80l-80,-80l-80,80l-80,-80l80,-80l80,80Z"/></clipPath><g clip-path="url(#_clip6)"><g><circle cx="500" cy="80" r="33.941" style="fill:none;stroke:#fff;stroke-width:16.97px;"/><circle cx="500" cy="80" r="59.397" style="fill:none;stroke:#fff;stroke-width:16.97px;"/><circle cx="500" cy="80" r="84.853" style="fill:none;stroke:#fff;stroke-width:16.97px;"/></g></g><circle cx="500" cy="80" r="16.971" style="fill:#fff;"/><path id="path35403" serif:id="path3540" d="M434.554,160.181l-26.195,64.608l18.962,0l4.692,-11.241l26.977,0l5.18,11.241l19.255,0l-29.127,-64.608l-19.744,0Zm9.872,18.278l9.188,22.187l-17.398,0l8.21,-22.187Z" style="fill:#fff;fill-rule:nonzero;"/><path id="path43283" serif:id="path4328" d="M464.146,160.181l35.651,79.819l36.825,-79.819l-19.476,0l-17.349,39.097l-16.421,-39.097l-19.23,0Z" style="fill:#fff;fill-rule:nonzero;"/><path id="path28903" serif:id="path2890" d="M545.785,160.181l-28.639,64.608l19.451,0l10.337,-23.19l4.447,0l6.133,23.19l19.94,0l-8.993,-25.511c0,0 20.341,-2.983 20.917,-20.819c-0.656,-19.057 -18.278,-18.278 -18.278,-18.278l-25.315,0Zm12.902,12.413l6.94,0c0,0 5.473,0.66 5.473,5.865c0,5.205 -3.616,8.894 -10.849,9.579c-3.506,0 -7.172,0 -8.491,0l6.927,-15.444Z" style="fill:#fff;fill-rule:nonzero;"/><path d="M508.485,104.06l0,55.84l-8.688,19.579l-8.282,-19.72l0,-55.699c2.654,0.942 5.51,1.455 8.485,1.455c2.975,0 5.831,-0.513 8.485,-1.455Z" style="fill:#fff;"/></g></g><clipPath id="_clip7"><rect x="140" y="30" width="320" height="320"/></clipPath><g clip-path="url(#_clip7)"><g id="g5908"><g id="g5889"><path id="rect2723" d="M300.898,35c-50.18,0 -90.577,40.397 -90.577,90.577l0,100.641l25.16,0l0,-100.641c0,-36.241 29.176,-65.417 65.417,-65.417c36.241,0 65.417,29.176 65.417,65.417l0,100.641l25.16,0l0,-100.641c0,-50.18 -40.397,-90.577 -90.577,-90.577Z" style="fill:#282828;"/><path id="path3082" d="M300.898,41.573c-47.392,0 -85.545,40.767 -85.545,87.272l0,93.821c0,35.223 21.941,65.124 53.151,77.618c-22.362,-10.182 -38.055,-31.999 -38.055,-57.866l0,-118.511c0,-35.563 29.176,-66.553 65.417,-66.553l10.064,0c36.241,0 65.417,30.99 65.417,66.553l0,118.511c0,25.867 -15.693,47.684 -38.055,57.866c31.21,-12.494 53.151,-42.395 53.151,-77.618l0,-93.821c0,-46.505 -38.153,-87.272 -85.545,-87.272Z" style="fill:url(#_Linear8);"/><path id="path2931" d="M300.898,37.135c-48.775,0 -88.042,39.002 -88.042,87.45l0,97.738c0,36.693 22.581,67.843 54.703,80.858c-23.015,-10.607 -39.166,-33.335 -39.166,-60.282l0,-123.459c0,-37.047 30.027,-72.705 67.326,-72.705l10.358,0c37.298,0 67.326,35.658 67.326,72.705l0,123.459c0,26.947 -16.151,49.675 -39.166,60.282c32.121,-13.015 54.702,-44.165 54.702,-80.858l0,-97.738c0,-48.448 -39.266,-87.45 -88.041,-87.45Z" style="fill:url(#_Linear9);"/><path id="path2861" d="M263.677,60.008c-13.596,8.513 -21.247,23.025 -19.749,27.863c1.614,5.212 11.166,-18.084 38.208,-25.299c20.851,-5.563 -0.001,-14.121 -18.459,-2.564Z" style="fill:url(#_Radial10);"/><path id="path2871" d="M338.119,59.758c13.596,8.513 21.247,23.025 19.749,27.863c-1.614,5.212 -11.167,-18.084 -38.208,-25.299c-20.852,-5.563 0.001,-14.122 18.459,-2.564Z" style="fill:url(#_Radial11);"/><path id="rect2875" d="M300.898,45.699c-47.392,0 -85.545,32.486 -85.545,79.878l0,95.609c0,35.895 21.941,66.366 53.151,79.098c-22.362,-10.376 -38.055,-32.609 -38.055,-58.969l0,-120.77c0,-36.241 29.176,-65.456 65.417,-65.456l10.064,0c36.241,0 65.417,29.215 65.417,65.456l0,120.77c0,26.36 -15.693,48.593 -38.055,58.969c31.21,-12.732 53.151,-43.203 53.151,-79.098l0,-95.609c0,-47.392 -38.153,-79.878 -85.545,-79.878Z" style="fill:url(#_Linear12);"/><path id="path2933" d="M300.898,40.097c-66.904,0 -82.344,58.288 -82.344,84.651c0,79.086 5.147,79.086 5.147,0c0,-57.997 41.156,-80.887 77.197,-80.887c36.04,0 77.197,25.256 77.197,80.887c0,79.086 5.147,79.086 5.147,0c0,-26.363 -15.44,-84.651 -82.344,-84.651Z" style="fill:url(#_Linear13);"/><path id="path2885" d="M300.898,47.728c-65.417,0 -80.513,55.751 -80.513,79.969c0,72.655 5.032,72.655 5.032,0c0,-53.28 40.241,-76.512 75.481,-76.512c35.239,0 75.481,25.405 75.481,76.512c0,72.655 5.032,72.655 5.032,0c0,-24.218 -15.096,-79.969 -80.513,-79.969Z" style="fill:url(#_Linear14);"/><path id="path2897" d="M232.449,71.219c-7.188,13.12 7.568,4.828 10.995,0.684c9.635,-11.647 25.919,-20.09 40.213,-22.846c11.987,-2.311 13.814,-6.939 3.944,-7.705c-19.681,-1.528 -48.261,17.289 -55.152,29.867Z" style="fill:#fff;fill-opacity:0.8;"/><path id="path2901" d="M221.559,92.889c0.762,6.412 13.158,-14.494 22.919,-24.309c11.921,-11.987 29.991,-20.377 38.684,-21.486c15.496,-1.976 8.14,-9.57 -1.572,-7.651c-35.3,6.973 -61.974,37.096 -60.031,53.446Z" style="fill:#fff;fill-opacity:0.6;"/><path id="path2909" d="M368.95,71.129c7.236,13.094 -7.55,4.856 -10.992,0.725c-9.678,-11.612 -25.993,-19.995 -40.297,-22.698c-11.995,-2.267 -15.371,-6.88 -5.503,-7.683c19.674,-1.6 49.855,17.103 56.792,29.656Z" style="fill:#fff;fill-opacity:0.8;"/><path id="path2911" d="M379.496,92.312c-0.739,6.414 -13.212,-14.446 -23.009,-24.225c-11.965,-11.943 -30.065,-20.267 -38.762,-21.343c-15.504,-1.919 -8.231,-9.238 1.542,-7.656c35.354,5.754 62.112,36.867 60.229,53.224Z" style="fill:#fff;fill-opacity:0.6;"/><path id="path2953" d="M262.58,57.846c-17.723,10.122 -27.697,27.378 -25.744,33.13c2.104,6.198 14.557,-21.503 49.808,-30.081c27.181,-6.615 -0.002,-16.792 -24.064,-3.049Z" style="fill:url(#_Radial15);"/><path id="path2957" d="M338.851,57.363c16.352,10.296 25.554,27.846 23.752,33.696c-1.941,6.304 -13.43,-21.87 -45.953,-30.595c-25.078,-6.727 0.002,-17.078 22.201,-3.101Z" style="fill:url(#_Radial16);"/><path id="path3055" d="M441.796,341.956c0,5.558 -63.082,10.064 -140.898,10.064c-77.816,0 -140.898,-4.506 -140.898,-10.064c0,-5.558 63.082,-10.064 140.898,-10.064c77.816,0 140.898,4.506 140.898,10.064Z" style="fill:url(#_Radial17);"/><path id="path3065" d="M441.796,334.408c0,6.948 -63.082,12.58 -140.898,12.58c-77.816,0 -140.898,-5.632 -140.898,-12.58c0,-6.948 63.082,-12.58 140.898,-12.58c77.816,0 140.898,5.632 140.898,12.58Z" style="fill:url(#_Radial18);"/><path id="path3067" d="M441.796,336.924c0,5.558 -63.082,10.064 -140.898,10.064c-77.816,0 -140.898,-4.506 -140.898,-10.064c0,-5.558 63.082,-10.064 140.898,-10.064c77.816,0 140.898,4.506 140.898,10.064Z" style="fill:url(#_Radial19);"/></g><path id="rect1941" d="M401.539,174.648c0,-0.69 -0.56,-1.25 -1.25,-1.25l-198.782,0c-0.69,0 -1.25,0.56 -1.25,1.25l0,163.148c0,0.689 0.56,1.25 1.25,1.25l198.782,0c0.69,0 1.25,-0.561 1.25,-1.25l0,-163.148Z" style="fill:url(#_Linear20);"/><path id="rect2709" d="M401.539,174.648c0,-0.69 -0.56,-1.25 -1.25,-1.25l-198.782,0c-0.69,0 -1.25,0.56 -1.25,1.25l0,163.148c0,0.689 0.56,1.25 1.25,1.25l198.782,0c0.69,0 1.25,-0.561 1.25,-1.25l0,-163.148Z" style="fill:url(#_Linear21);"/><path id="rect2734" d="M401.539,174.648c0,-0.69 -0.56,-1.25 -1.25,-1.25l-198.782,0c-0.69,0 -1.25,0.56 -1.25,1.25l0,163.148c0,0.689 0.56,1.25 1.25,1.25l198.782,0c0.69,0 1.25,-0.561 1.25,-1.25l0,-163.148Z" style="fill:url(#_Linear22);"/><path id="rect2738" d="M401.539,174.648c0,-0.69 -0.56,-1.25 -1.25,-1.25l-198.782,0c-0.69,0 -1.25,0.56 -1.25,1.25l0,162.898c0,0.689 0.56,1.25 1.25,1.25l198.782,0c0.69,0 1.25,-0.561 1.25,-1.25l0,-162.898Z" style="fill:url(#_Linear23);"/><path id="path2727" d="M206.547,173.398c4.525,5.304 45.363,9.465 96.638,9.465c50.572,0 90.733,-4.117 96.21,-9.317c-0.077,-0.008 -0.064,-0.148 -0.143,-0.148l-192.705,0Z" style="fill:#f4f4f4;fill-opacity:0.5;"/><g id="g2798"><path id="path2778" d="M211.111,186.138c-1.889,13.027 -4.001,95.657 2.994,113.348c6.843,17.306 5.988,-82.567 22.667,-98.287c16.857,-15.887 -23.879,-27.347 -25.661,-15.061Z" style="fill:url(#_Radial24);"/><path id="path2790" d="M210.069,187.004c-2.181,15.207 -4.618,111.67 3.454,132.324c7.897,20.203 6.91,-96.39 26.159,-114.743c19.451,-18.546 -27.557,-31.924 -29.613,-17.581Z" style="fill:url(#_Radial25);"/><path id="path2794" d="M207.932,187.749c-2.71,17.086 -5.738,125.461 4.293,148.664c9.813,22.698 8.586,-108.292 32.505,-128.911c24.171,-20.837 -34.243,-35.867 -36.798,-19.753Z" style="fill:url(#_Radial26);"/></g><g id="g2803"><path id="path2805" d="M390.684,186.138c1.89,13.027 4.002,95.657 -2.993,113.348c-6.843,17.306 -5.988,-82.567 -22.668,-98.287c-16.856,-15.887 23.879,-27.347 25.661,-15.061Z" style="fill:url(#_Radial27);"/><path id="path2807" d="M391.727,187.004c2.18,15.207 4.618,111.67 -3.455,132.324c-7.897,20.203 -6.91,-96.39 -26.158,-114.743c-19.452,-18.546 27.557,-31.924 29.613,-17.581Z" style="fill:url(#_Radial28);"/><path id="path2809" d="M393.864,187.749c2.709,17.086 5.738,125.461 -4.293,148.664c-9.813,22.698 -8.587,-108.292 -32.505,-128.911c-24.171,-20.837 34.242,-35.867 36.798,-19.753Z" style="fill:url(#_Radial29);"/></g><path id="rect3077" d="M397.789,316.812l0,19.718c0,1.393 -1.08,2.516 -2.422,2.516l-188.938,0c-1.342,0 -2.422,-1.123 -2.422,-2.516l0,-70.039c0,73.791 193.782,-52.197 193.782,50.321Z" style="fill:url(#_Linear30);"/><path id="path2768" d="M204.116,339.046c4.526,-5.305 45.364,-9.466 96.639,-9.466c50.571,0 90.733,4.118 96.21,9.318c-0.078,0.008 -0.064,0.148 -0.143,0.148l-192.706,0Z" style="fill-opacity:0.5;"/></g></g><path d="M236.112,252.223l5.568,0c1.728,0 3.104,-0.24 4.128,-0.72c1.024,-0.48 1.808,-1.168 2.352,-2.064c0.544,-0.896 0.912,-2 1.104,-3.312c0.192,-1.312 0.288,-2.832 0.288,-4.56c0,-1.728 -0.096,-3.248 -0.288,-4.56c-0.192,-1.312 -0.592,-2.432 -1.2,-3.36c-0.608,-0.928 -1.456,-1.616 -2.544,-2.064c-1.088,-0.448 -2.528,-0.672 -4.32,-0.672l-5.088,0l0,21.312Zm-9.792,-30.528l15.744,0c11.52,0 17.28,6.688 17.28,20.064c0,3.968 -0.624,7.376 -1.872,10.224c-1.248,2.848 -3.44,5.136 -6.576,6.864l10.56,31.2l-10.368,0l-9.12,-29.184l-5.856,0l0,29.184l-9.792,0l0,-68.352Z" style="fill-opacity:0.74902;fill-rule:nonzero;"/><path d="M298.32,274.783c0,2.112 -0.4,4.128 -1.2,6.048c-0.8,1.92 -1.904,3.6 -3.312,5.04c-1.408,1.44 -3.056,2.592 -4.944,3.456c-1.888,0.864 -3.92,1.296 -6.096,1.296c-1.856,0 -3.744,-0.256 -5.664,-0.768c-1.92,-0.512 -3.648,-1.392 -5.184,-2.64c-1.536,-1.248 -2.8,-2.896 -3.792,-4.944c-0.992,-2.048 -1.488,-4.64 -1.488,-7.776l0,-37.632c0,-2.24 0.384,-4.32 1.152,-6.24c0.768,-1.92 1.856,-3.584 3.264,-4.992c1.408,-1.408 3.088,-2.512 5.04,-3.312c1.952,-0.8 4.112,-1.2 6.48,-1.2c2.24,0 4.32,0.4 6.24,1.2c1.92,0.8 3.584,1.92 4.992,3.36c1.408,1.44 2.512,3.168 3.312,5.184c0.8,2.016 1.2,4.208 1.2,6.576l0,3.84l-9.792,0l0,-3.264c0,-1.92 -0.544,-3.584 -1.632,-4.992c-1.088,-1.408 -2.56,-2.112 -4.416,-2.112c-2.432,0 -4.048,0.752 -4.848,2.256c-0.8,1.504 -1.2,3.408 -1.2,5.712l0,34.944c0,1.984 0.432,3.648 1.296,4.992c0.864,1.344 2.416,2.016 4.656,2.016c0.64,0 1.328,-0.112 2.064,-0.336c0.736,-0.224 1.408,-0.592 2.016,-1.104c0.608,-0.512 1.104,-1.216 1.488,-2.112c0.384,-0.896 0.576,-2.016 0.576,-3.36l0,-3.36l9.792,0l0,4.224Z" style="fill-opacity:0.74902;fill-rule:nonzero;"/><path d="M322.032,279.871l-19.488,0l0,-9.216l14.112,-48.96l10.368,0l-14.688,48.96l9.696,0l0,-19.488l9.792,0l0,19.488l4.704,0l0,9.216l-4.704,0l0,10.176l-9.792,0l0,-10.176Z" style="fill-opacity:0.74902;fill-rule:nonzero;"/><path d="M342,221.695l14.496,0c5.568,0 9.824,1.552 12.768,4.656c2.944,3.104 4.416,7.44 4.416,13.008l0,31.968c0,6.4 -1.552,11.12 -4.656,14.16c-3.104,3.04 -7.568,4.56 -13.392,4.56l-13.632,0l0,-68.352Zm9.792,59.136l4.512,0c2.752,0 4.704,-0.688 5.856,-2.064c1.152,-1.376 1.728,-3.536 1.728,-6.48l0,-32.928c0,-2.688 -0.544,-4.768 -1.632,-6.24c-1.088,-1.472 -3.072,-2.208 -5.952,-2.208l-4.512,0l0,49.92Z" style="fill-opacity:0.74902;fill-rule:nonzero;"/><defs><filter id="_Effect1" filterUnits="userSpaceOnUse" x="-72" y="-8" width="344" height="264"><feGaussianBlur in="SourceGraphic" stdDeviation="2"/></filter><filter id="_Effect4" filterUnits="userSpaceOnUse" x="328" y="-8" width="344" height="264"><feGaussianBlur in="SourceGraphic" stdDeviation="2"/></filter><linearGradient id="_Linear8" x1="0" y1="0" x2="1" y2="0" gradientUnits="userSpaceOnUse" gradientTransform="matrix(3.76123e-15,61.4255,-61.4255,3.76123e-15,286.735,44.9185)"><stop offset="0" style="stop-color:#b3b3b3;stop-opacity:0.65"/><stop offset="0" style="stop-color:#d9d9d9;stop-opacity:0.323725"/><stop offset="1" style="stop-color:#fff;stop-opacity:0"/></linearGradient><linearGradient id="_Linear9" x1="0" y1="0" x2="1" y2="0" gradientUnits="userSpaceOnUse" gradientTransform="matrix(5.57055,-31.4113,31.4113,5.57055,296.922,99.0595)"><stop offset="0" style="stop-color:#b3b3b3;stop-opacity:0.5"/><stop offset="0" style="stop-color:#d9d9d9;stop-opacity:0.24902"/><stop offset="1" style="stop-color:#fff;stop-opacity:0"/></linearGradient><radialGradient id="_Radial10" cx="0" cy="0" r="1" gradientUnits="userSpaceOnUse" gradientTransform="matrix(35.9001,0,0,26.1907,266.755,68.734)"><stop offset="0" style="stop-color:#686868;stop-opacity:0.8"/><stop offset="1" style="stop-color:#fff;stop-opacity:0"/></radialGradient><radialGradient id="_Radial11" cx="0" cy="0" r="1" gradientUnits="userSpaceOnUse" gradientTransform="matrix(-35.9001,0,0,26.1907,335.041,68.4837)"><stop offset="0" style="stop-color:#686868;stop-opacity:0.8"/><stop offset="1" style="stop-color:#fff;stop-opacity:0"/></radialGradient><linearGradient id="_Linear12" x1="0" y1="0" x2="1" y2="0" gradientUnits="userSpaceOnUse" gradientTransform="matrix(7.55579e-16,-12.3395,12.3395,7.55579e-16,298.102,89.3902)"><stop offset="0" style="stop-color:#b3b3b3;stop-opacity:0.5"/><stop offset="0" style="stop-color:#d9d9d9;stop-opacity:0.24902"/><stop offset="1" style="stop-color:#fff;stop-opacity:0"/></linearGradient><linearGradient id="_Linear13" x1="0" y1="0" x2="1" y2="0" gradientUnits="userSpaceOnUse" gradientTransform="matrix(1.12925e-14,-184.42,184.42,1.12925e-14,319.571,144.317)"><stop offset="0" style="stop-color:#b3b3b3;stop-opacity:0.8"/><stop offset="0" style="stop-color:#d9d9d9;stop-opacity:0.398431"/><stop offset="1" style="stop-color:#fff;stop-opacity:0"/></linearGradient><linearGradient id="_Linear14" x1="0" y1="0" x2="1" y2="0" gradientUnits="userSpaceOnUse" gradientTransform="matrix(1.03741e-14,-169.423,169.423,1.03741e-14,319.155,145.675)"><stop offset="0" style="stop-color:#b3b3b3;stop-opacity:0.6"/><stop offset="0" style="stop-color:#d9d9d9;stop-opacity:0.298824"/><stop offset="1" style="stop-color:#fff;stop-opacity:0"/></linearGradient><radialGradient id="_Radial15" cx="0" cy="0" r="1" gradientUnits="userSpaceOnUse" gradientTransform="matrix(46.7992,0,0,31.1418,266.593,68.2212)"><stop offset="0" style="stop-color:#686868;stop-opacity:0.4"/><stop offset="1" style="stop-color:#fff;stop-opacity:0"/></radialGradient><radialGradient id="_Radial16" cx="0" cy="0" r="1" gradientUnits="userSpaceOnUse" gradientTransform="matrix(-43.1773,0,0,31.6735,335.149,67.9159)"><stop offset="0" style="stop-color:#686868;stop-opacity:0.4"/><stop offset="1" style="stop-color:#fff;stop-opacity:0"/></radialGradient><radialGradient id="_Radial17" cx="0" cy="0" r="1" gradientUnits="userSpaceOnUse" gradientTransform="matrix(140.898,0,0,10.0641,300.898,341.956)"><stop offset="0" style="stop-color:#282828;stop-opacity:0.4"/><stop offset="1" style="stop-color:#282828;stop-opacity:0"/></radialGradient><radialGradient id="_Radial18" cx="0" cy="0" r="1" gradientUnits="userSpaceOnUse" gradientTransform="matrix(140.898,0,0,12.5801,300.898,334.407)"><stop offset="0" style="stop-color:#282828;stop-opacity:0.4"/><stop offset="1" style="stop-color:#282828;stop-opacity:0"/></radialGradient><radialGradient id="_Radial19" cx="0" cy="0" r="1" gradientUnits="userSpaceOnUse" gradientTransform="matrix(140.898,0,0,10.0641,300.898,336.924)"><stop offset="0" style="stop-color:#282828;stop-opacity:0.4"/><stop offset="1" style="stop-color:#282828;stop-opacity:0"/></radialGradient><linearGradient id="_Linear20" x1="0" y1="0" x2="1" y2="0" gradientUnits="userSpaceOnUse" gradientTransform="matrix(81.2827,0,0,81.2827,299.18,273.786)"><stop offset="0" style="stop-color:#707070;stop-opacity:1"/><stop offset="1" style="stop-color:#b1b1b1;stop-opacity:1"/></linearGradient><linearGradient id="_Linear21" x1="0" y1="0" x2="1" y2="0" gradientUnits="userSpaceOnUse" gradientTransform="matrix(2.62319e-16,4.284,-4.284,2.62319e-16,301.253,239.086)"><stop offset="0" style="stop-color:#868686;stop-opacity:0.03"/><stop offset="0" style="stop-color:#a8a8a8;stop-opacity:0.03"/><stop offset="0" style="stop-color:#cbcbcb;stop-opacity:0.03"/><stop offset="1" style="stop-color:#fff;stop-opacity:0.03"/></linearGradient><linearGradient id="_Linear22" x1="0" y1="0" x2="1" y2="0" gradientUnits="userSpaceOnUse" gradientTransform="matrix(1.91037,8.56766,-8.56766,1.91037,274.449,228.376)"><stop offset="0" style="stop-color:#868686;stop-opacity:0.03"/><stop offset="0" style="stop-color:#a8a8a8;stop-opacity:0.03"/><stop offset="0" style="stop-color:#cbcbcb;stop-opacity:0.03"/><stop offset="1" style="stop-color:#fff;stop-opacity:0.03"/></linearGradient><linearGradient id="_Linear23" x1="0" y1="0" x2="1" y2="0" gradientUnits="userSpaceOnUse" gradientTransform="matrix(-1.42251,10.71,-10.71,-1.42251,237.953,303.346)"><stop offset="0" style="stop-color:#868686;stop-opacity:0.03"/><stop offset="0" style="stop-color:#a8a8a8;stop-opacity:0.03"/><stop offset="0" style="stop-color:#cbcbcb;stop-opacity:0.03"/><stop offset="1" style="stop-color:#fff;stop-opacity:0.03"/></linearGradient><radialGradient id="_Radial24" cx="0" cy="0" r="1" gradientUnits="userSpaceOnUse" gradientTransform="matrix(28.2338,0,0,107.745,216.535,193.437)"><stop offset="0" style="stop-color:#b3b3b3;stop-opacity:0.402778"/><stop offset="0" style="stop-color:#d9d9d9;stop-opacity:0.200599"/><stop offset="1" style="stop-color:#fff;stop-opacity:0"/></radialGradient><radialGradient id="_Radial25" cx="0" cy="0" r="1" gradientUnits="userSpaceOnUse" gradientTransform="matrix(32.5816,0,0,125.783,216.327,195.524)"><stop offset="0" style="stop-color:#b3b3b3;stop-opacity:0.3"/><stop offset="0" style="stop-color:#d9d9d9;stop-opacity:0.149412"/><stop offset="1" style="stop-color:#fff;stop-opacity:0"/></radialGradient><radialGradient id="_Radial26" cx="0" cy="0" r="1" gradientUnits="userSpaceOnUse" gradientTransform="matrix(40.4867,0,0,141.316,215.709,197.321)"><stop offset="0" style="stop-color:#b3b3b3;stop-opacity:0.2"/><stop offset="0" style="stop-color:#d9d9d9;stop-opacity:0.0996078"/><stop offset="1" style="stop-color:#fff;stop-opacity:0"/></radialGradient><radialGradient id="_Radial27" cx="0" cy="0" r="1" gradientUnits="userSpaceOnUse" gradientTransform="matrix(-28.2338,0,0,107.745,385.261,193.437)"><stop offset="0" style="stop-color:#b3b3b3;stop-opacity:0.402778"/><stop offset="0" style="stop-color:#d9d9d9;stop-opacity:0.200599"/><stop offset="1" style="stop-color:#fff;stop-opacity:0"/></radialGradient><radialGradient id="_Radial28" cx="0" cy="0" r="1" gradientUnits="userSpaceOnUse" gradientTransform="matrix(-32.5816,0,0,125.783,385.468,195.524)"><stop offset="0" style="stop-color:#b3b3b3;stop-opacity:0.3"/><stop offset="0" style="stop-color:#d9d9d9;stop-opacity:0.149412"/><stop offset="1" style="stop-color:#fff;stop-opacity:0"/></radialGradient><radialGradient id="_Radial29" cx="0" cy="0" r="1" gradientUnits="userSpaceOnUse" gradientTransform="matrix(-40.4867,0,0,141.316,386.087,197.321)"><stop offset="0" style="stop-color:#b3b3b3;stop-opacity:0.2"/><stop offset="0" style="stop-color:#d9d9d9;stop-opacity:0.0996078"/><stop offset="1" style="stop-color:#fff;stop-opacity:0"/></radialGradient><linearGradient id="_Linear30" x1="0" y1="0" x2="1" y2="0" gradientUnits="userSpaceOnUse" gradientTransform="matrix(6.62436e-15,-108.184,108.184,6.62436e-15,289.923,340.989)"><stop offset="0" style="stop-color:#b3b3b3;stop-opacity:0.25"/><stop offset="0" style="stop-color:#d9d9d9;stop-opacity:0.12451"/><stop offset="1" style="stop-color:#fff;stop-opacity:0"/></linearGradient></defs></svg>
