<svg height="350" viewBox="0 0 600 350" width="600" xmlns="http://www.w3.org/2000/svg" xmlns:xlink="http://www.w3.org/1999/xlink"><symbol id="a" fill-rule="evenodd"><g fill-rule="evenodd" transform="scale(2.5)" viewBox="0 0 128 128"><path d="m64.4 2c-20.1 0-36.3 16.2-36.3 36.2v40.3h10.1v-40.3c0-14.5 11.7-26.1 26.2-26.1s26.1 11.6 26.1 26.1v40.3h10.1v-40.3c0-20-16.2-36.2-36.2-36.2z" fill="#282828"/><path d="m64.4 4.6c-19 0-34.3 16.3-34.3 34.9v37.6c0 14.1 8.8 26 21.3 31-8.9-4.1-15.2-12.8-15.2-23.1v-47.4c0-14.3 11.6-26.7 26.1-26.7h4.1c14.5 0 26.1 12.4 26.1 26.7v47.4c0 10.3-6.2 19-15.2 23.1 12.5-5 21.3-16.9 21.3-31v-37.6c0-18.6-15.3-34.9-34.2-34.9z" fill="url(#v)" opacity=".7"/><path d="m64.4 2.9c-19.6 0-35.3 15.6-35.3 34.9v39.1c0 14.7 9.1 27.2 21.9 32.4-9.2-4.3-15.6-13.4-15.6-24.1v-49.4c0-14.8 12-29.1 26.9-29.1h4.1c15 0 27 14.3 27 29.1v49.4c0 10.7-6.5 19.8-15.7 24.1 12.8-5.2 21.9-17.7 21.9-32.4v-39.1c0-19.3-15.7-34.9-35.2-34.9z" fill="url(#u)" opacity=".5"/><path d="m49.5 12c-5.5 3.4-8.5 9.2-7.9 11.1.6 2.1 4.4-7.2 15.3-10.1 8.3-2.2 0-5.6-7.4-1z" fill="url(#t)" opacity=".8"/><path d="m79.2 11.9c5.5 3.4 8.5 9.2 7.9 11.1-.6 2.1-4.4-7.2-15.2-10.1-8.4-2.2 0-5.6 7.3-1z" fill="url(#s)" opacity=".8"/><path d="m64.4 6.3c-19 0-34.3 13-34.3 31.9v38.3c0 14.3 8.8 26.5 21.3 31.6-8.9-4.1-15.2-13-15.2-23.6v-48.3c0-14.5 11.6-26.2 26.1-26.2h4.1c14.5 0 26.1 11.7 26.1 26.2v48.3c0 10.6-6.2 19.5-15.2 23.6 12.5-5.1 21.3-17.3 21.3-31.6v-38.3c0-18.9-15.3-31.9-34.2-31.9z" fill="url(#r)" opacity=".5"/><path d="m64.4 4c-26.8 0-33 23.4-33 33.9 0 31.6 2.1 31.6 2.1 0 0-23.2 16.4-32.4 30.9-32.4 14.4 0 30.8 10.1 30.8 32.4 0 31.6 2.1 31.6 2.1 0 0-10.5-6.2-33.9-32.9-33.9z" fill="url(#q)" opacity=".8"/><path d="m64.4 7.1c-26.2 0-32.2 22.3-32.2 32 0 29 2 29 2 0 0-21.3 16.1-30.6 30.2-30.6s30.2 10.1 30.2 30.6c0 29 2 29 2 0 0-9.7-6.1-32-32.2-32z" fill="url(#p)" opacity=".6"/><g fill="#fff"><path d="m37 16.5c-2.9 5.2 3 1.9 4.4.3 3.8-4.7 10.3-8.1 16.1-9.2 4.8-.9 5.5-2.8 1.5-3.1-7.8-.6-19.3 7-22 12z" opacity=".8"/><path d="m32.6 25.2c.3 2.5 5.3-5.8 9.2-9.8 4.8-4.8 12-8.1 15.5-8.6 6.2-.8 3.2-3.8-.7-3-14.1 2.8-24.8 14.8-24 21.4z" opacity=".6"/><path d="m91.6 16.5c2.9 5.2-3 1.9-4.4.2-3.9-4.6-10.4-8-16.1-9-4.8-.9-6.2-2.8-2.2-3.1 7.8-.7 19.9 6.8 22.7 11.9z" opacity=".8"/><path d="m95.8 24.9c-.3 2.6-5.3-5.8-9.2-9.7-4.8-4.7-12-8.1-15.5-8.5-6.2-.8-3.3-3.7.6-3.1 14.1 2.3 24.9 14.8 24.1 21.3z" opacity=".6"/></g><path d="m49 11.1c-7.1 4.1-11 11-10.3 13.3.9 2.5 5.9-8.6 20-12 10.8-2.7 0-6.8-9.7-1.3z" fill="url(#o)" opacity=".4"/><path d="m79.5 10.9c6.6 4.2 10.3 11.2 9.5 13.5-.7 2.5-5.3-8.7-18.3-12.2-10.1-2.7 0-6.8 8.8-1.3z" fill="url(#n)" opacity=".4"/><path d="m120.7 124.8c0 2.2-25.2 4-56.3 4-31.2 0-56.4-1.8-56.4-4s25.2-4 56.4-4c31.1 0 56.3 1.8 56.3 4z" fill="url(#m)" opacity=".4"/><path d="m120.7 121.8c0 2.7-25.2 5-56.3 5-31.2 0-56.4-2.3-56.4-5 0-2.8 25.2-5.1 56.4-5.1 31.1 0 56.3 2.3 56.3 5.1z" fill="url(#l)" opacity=".4"/><path d="m120.7 122.8c0 2.2-25.2 4-56.3 4-31.2 0-56.4-1.8-56.4-4 0-2.3 25.2-4.1 56.4-4.1 31.1 0 56.3 1.8 56.3 4.1z" fill="url(#k)" opacity=".4"/><rect fill="url(#A)" height="66.3" rx=".5" width="80.5" x="24.1" y="57.4"/><rect fill="url(#z)" height="66.3" opacity="0" rx=".5" width="80.5" x="24.1" y="57.4"/><rect fill="url(#y)" height="66.3" opacity="0" rx=".5" width="80.5" x="24.1" y="57.4"/><rect fill="url(#x)" height="66.2" opacity="0" rx=".5" width="80.5" x="24.1" y="57.4"/><path d="m26.6 57.4c1.8 2.1 18.2 3.7 38.7 3.7 20.2 0 36.3-1.6 38.5-3.7-.1 0-.1 0-.1 0z" fill="#f4f4f4" opacity=".5"/><g transform="matrix(1.7 0 0 2 4.4 1.5)"><path d="m14 30.8c-.5 2.6-1 19.3.7 22.8 1.6 3.5 1.4-16.6 5.2-19.8 4-3.2-5.5-5.5-5.9-3z" fill="url(#h)" opacity=".4"/><path d="m13.7 30.9c-.5 3.1-1 22.6.8 26.8 1.9 4 1.6-19.5 6.1-23.2 4.5-3.8-6.4-6.5-6.9-3.6z" fill="url(#i)" opacity=".3"/><path d="m13.2 31.1c-.6 3.4-1.3 25.3 1 30 2.3 4.6 2-21.9 7.6-26 5.6-4.2-8-7.3-8.6-4z" fill="url(#j)" opacity=".2"/></g><g transform="matrix(-1.7 0 0 2 124.3 1.5)"><path d="m14 30.8c-.5 2.6-1 19.3.7 22.8 1.6 3.5 1.4-16.6 5.2-19.8 4-3.2-5.5-5.5-5.9-3z" fill="url(#h)" opacity=".4"/><path d="m13.7 30.9c-.5 3.1-1 22.6.8 26.8 1.9 4 1.6-19.5 6.1-23.2 4.5-3.8-6.4-6.5-6.9-3.6z" fill="url(#i)" opacity=".3"/><path d="m13.2 31.1c-.6 3.4-1.3 25.3 1 30 2.3 4.6 2-21.9 7.6-26 5.6-4.2-8-7.3-8.6-4z" fill="url(#j)" opacity=".2"/></g><path d="m103.1 114.7v7.9c0 .6-.4 1-1 1h-75.5c-.6 0-1-.4-1-1v-28c0 29.5 77.5-20.9 77.5 20.1z" fill="url(#w)" opacity=".2"/><path d="m25.6 123.6c1.9-2.1 18.2-3.8 38.7-3.8 20.2 0 36.3 1.7 38.5 3.8 0 0 0 0-.1 0z" opacity=".5"/></g></symbol><symbol id="b"><path clip-rule="evenodd" d="m194 15-12 12c14.3 14.3 22.4 33.7 22.4 54s-8 39.7-22.4 54l12 12c17.5-17.5 27.3-41.2 27.3-66s-9.8-48.5-27.3-66zm-18 18-12 12c9.6 9.6 14.9 22.5 14.9 36s-5.4 26.4-14.9 36l12 12c12.7-12.7 19.9-30 19.9-48s-7.2-35.3-19.9-48zm-18 18-12 12c4.8 4.8 7.5 11.2 7.5 18s-2.7 13.2-7.5 18l12 12c8-8 12.4-18.8 12.4-30s-4.5-22-12.4-30zm-21.5 54.1v55.8l-8.7 19.6-8.3-19.7v-55.7c2.7.9 5.5 1.5 8.5 1.5s5.8-.5 8.5-1.5zm37.3 56.1-28.6 64.6h19.5l10.3-23.2h4.4l6.1 23.2h19.9l-9-25.5s20.3-3 20.9-20.8c-.7-19.1-18.3-18.3-18.3-18.3h-25.3zm12.9 12.4h6.9s5.5.7 5.5 5.9-3.6 8.9-10.8 9.6c-3.5 0-7.2 0-8.5 0l6.9-15.4zm-94.5-12.4 35.7 79.8 36.8-79.8h-19.5l-17.3 39.1-16.4-39.1h-19.2zm-29.6 0-26.2 64.6h19l4.7-11.2h27l5.2 11.2h19.3l-29.1-64.6h-19.7zm9.9 18.3 9.2 22.2h-17.4zm72.4-98.5a17 17 0 0 1 -17 17 17 17 0 0 1 -17-17 17 17 0 0 1 17-17 17 17 0 0 1 17 17zm-82.9-66c-36.4 36.4-36.4 95.6 0 132l12-12c-29.9-29.9-29.9-78.1 0-108zm18 18c-26.4 26.4-26.4 69.6 0 96l12-12c-20-20-20-52 0-72zm18 18c-16.5 16.5-16.5 43.5 0 60l12-12c-10-10-10-26 0-36z" fill-rule="evenodd" height="256" stroke-linecap="round" stroke-linejoin="round" stroke-miterlimit="1.5" viewBox="0 0 256 256" width="256"/></symbol><filter id="c" color-interpolation-filters="sRGB" height="3" width="3" x="-1" y="-1"><feGaussianBlur stdDeviation="4.126"/></filter><linearGradient id="d"><stop offset="0" stop-color="#282828"/><stop offset="1" stop-color="#282828" stop-opacity="0"/></linearGradient><linearGradient id="e"><stop offset="0" stop-color="#686868"/><stop offset="1" stop-color="#fff" stop-opacity="0"/></linearGradient><linearGradient id="f"><stop offset="0" stop-color="#b3b3b3"/><stop offset="0" stop-color="#d9d9d9" stop-opacity=".5"/><stop offset="1" stop-color="#fff" stop-opacity="0"/></linearGradient><linearGradient id="g"><stop offset="0" stop-color="#868686"/><stop offset="0" stop-color="#a8a8a8"/><stop offset="0" stop-color="#cbcbcb"/><stop offset="1" stop-color="#fff"/></linearGradient><radialGradient id="h" cx="20.4" cy="22.5" gradientTransform="matrix(.4 0 0 1.4 6.4 -.1)" gradientUnits="userSpaceOnUse" r="15.2" xlink:href="#f"/><radialGradient id="i" cx="20.4" cy="22.5" gradientTransform="matrix(.5 0 0 1.7 5 -5.1)" gradientUnits="userSpaceOnUse" r="15.2" xlink:href="#f"/><radialGradient id="j" cx="20.4" cy="22.5" gradientTransform="matrix(.6 0 0 1.9 2.4 -9.4)" gradientUnits="userSpaceOnUse" r="15.2" xlink:href="#f"/><radialGradient id="k" cx="8" cy="232" gradientTransform="matrix(7.5 0 0 .5 4 -2)" gradientUnits="userSpaceOnUse" r="7.5" xlink:href="#d"/><radialGradient id="l" cx="8" cy="232" gradientTransform="matrix(7.5 0 0 .7 4 -34.2)" gradientUnits="userSpaceOnUse" r="7.5" xlink:href="#d"/><radialGradient id="m" cx="8" cy="232" gradientTransform="matrix(7.5 0 0 .5 4 0)" gradientUnits="userSpaceOnUse" r="7.5" xlink:href="#d"/><radialGradient id="n" cx="21.6" cy="9" gradientTransform="matrix(-2.8 0 0 2.1 139.5 -3.6)" gradientUnits="userSpaceOnUse" r="6.1" xlink:href="#e"/><radialGradient id="o" cx="21.6" cy="9" gradientTransform="matrix(3.1 0 0 2.1 -16 -3.1)" gradientUnits="userSpaceOnUse" r="6.1" xlink:href="#e"/><linearGradient id="p" gradientTransform="matrix(2.2 0 0 1.8 -.1 2.3)" gradientUnits="userSpaceOnUse" x1="33.2" x2="33.2" xlink:href="#f" y1="24.4" y2="-13.2"/><linearGradient id="q" gradientTransform="matrix(2.2 0 0 2 -1.5 -2.2)" gradientUnits="userSpaceOnUse" x1="33.2" x2="33.2" xlink:href="#f" y1="24.4" y2="-13.2"/><linearGradient id="r" gradientTransform="matrix(1.6 0 0 2.5 -.1 0)" gradientUnits="userSpaceOnUse" x1="38.8" x2="38.8" xlink:href="#f" y1="9.6" y2="7.6"/><radialGradient id="s" cx="21.6" cy="9" gradientTransform="matrix(-2.4 0 0 1.7 129.1 -.1)" gradientUnits="userSpaceOnUse" r="6.1" xlink:href="#e"/><radialGradient id="t" cx="21.6" cy="9" gradientTransform="matrix(2.4 0 0 1.7 -.4 0)" gradientUnits="userSpaceOnUse" r="6.1" xlink:href="#e"/><linearGradient id="u" gradientTransform="matrix(1.6 0 0 2.5 -.1 0)" gradientUnits="userSpaceOnUse" x1="38.4" x2="39.7" xlink:href="#f" y1="11.2" y2="6.1"/><linearGradient id="v" gradientTransform="matrix(1.6 0 0 2.4 -.1 2)" gradientUnits="userSpaceOnUse" x1="36" x2="36" xlink:href="#f" y1="1.6" y2="11.7"/><linearGradient id="w" gradientTransform="matrix(2.1 0 0 1.8 2.3 -1)" gradientUnits="userSpaceOnUse" spreadMethod="pad" x1="27" x2="27" xlink:href="#f" y1="68.7" y2="45"/><linearGradient id="x" gradientTransform="matrix(2.2 0 0 1.8 -.1 -1)" gradientUnits="userSpaceOnUse" spreadMethod="reflect" x1="17.7" x2="17.4" xlink:href="#g" y1="60.4" y2="62.8"/><linearGradient id="y" gradientTransform="matrix(2.2 0 0 1.8 -.1 -1)" gradientUnits="userSpaceOnUse" spreadMethod="reflect" x1="24.3" x2="24.6" xlink:href="#g" y1="44" y2="45.9"/><linearGradient id="z" gradientTransform="matrix(2.2 0 0 1.8 -.1 -1)" gradientUnits="userSpaceOnUse" spreadMethod="reflect" x1="29.1" x2="29.1" xlink:href="#g" y1="46.4" y2="47.3"/><linearGradient id="A" gradientTransform="matrix(2.2 0 0 1.8 -.1 4.4)" gradientUnits="userSpaceOnUse" spreadMethod="reflect" x1="29.6" x2="44.7" y1="52.6" y2="52.6"><stop offset="0" stop-color="#707070"/><stop offset="1" stop-color="#b1b1b1"/></linearGradient><use filter="url(#c)" opacity=".5" xlink:href="#b" y="4"/><use fill="#fff" xlink:href="#b"/><use filter="url(#c)" opacity=".5" x="344" xlink:href="#b" y="4"/><use fill="#fff" x="344" xlink:href="#b"/><use x="140" xlink:href="#a" y="30"/><path d="m338.7 224.9h13.3q7.7 0 11.8 4.3 4.1 4.2 4.1 11.9v29.4q0 8.8-4.3 13.1-4.2 4.2-12.3 4.2h-12.6zm9 54.5h4.2q3.8 0 5.4-1.9 1.6-1.9 1.6-6v-30.3q0-3.7-1.5-5.7-1.5-2-5.5-2h-4.2v46zm-27.3-.9h-17.9v-8.5l13-45.1h9.5l-13.5 45.1h8.9v-17.9h9v17.9h4.3v8.5h-4.3v9.4h-9zm-21.8-4.7q0 2.9-1.1 5.6-1.1 2.7-3 4.7-1.9 1.9-4.6 3.2-2.6 1.1-5.6 1.1-2.6 0-5.2-.7-2.7-.7-4.8-2.4-2.1-1.8-3.5-4.6-1.3-2.8-1.3-7.2v-34.7q0-3.1 1.1-5.7 1.1-2.7 3-4.6 1.9-1.9 4.6-3 2.7-1.1 6-1.1 3.1 0 5.7 1.1 2.7 1.1 4.6 3.1 1.9 1.9 3 4.8 1.1 2.7 1.1 6v3.5h-9v-3q0-2.7-1.5-4.6-1.5-1.9-4.1-1.9-3.4 0-4.5 2.1-1.1 2-1.1 5.2v32.2q0 2.7 1.1 4.6 1.2 1.9 4.3 1.9.9 0 1.9-.3 1.1-.4 1.9-1.1.9-.7 1.4-1.9.5-1.2.5-3.1v-3.1h9v3.9zm-57.4-20.8h5.1q2.4 0 3.8-.6 1.4-.7 2.1-1.9.8-1.2 1.1-3 .3-1.9.3-4.2 0-2.4-.3-4.2-.3-1.9-1.1-3.1-.8-1.3-2.3-1.9-1.5-.6-4-.6h-4.7v19.6zm-9-28.1h14.5q15.9 0 15.9 18.5 0 5.5-1.8 9.5-1.7 3.9-6 6.3l9.7 28.7h-9.5l-8.4-26.9h-5.4v26.9h-9v-62.9z" opacity=".5"/></svg>