<?xml version="1.0" encoding="UTF-8" standalone="no"?><!DOCTYPE svg PUBLIC "-//W3C//DTD SVG 1.1//EN" "http://www.w3.org/Graphics/SVG/1.1/DTD/svg11.dtd"><svg width="600" height="350" viewBox="0 0 800 467" version="1.1" xmlns="http://www.w3.org/2000/svg" xmlns:xlink="http://www.w3.org/1999/xlink" xml:space="preserve" xmlns:serif="http://www.serif.com/" style="fill-rule:evenodd;clip-rule:evenodd;stroke-linecap:round;stroke-linejoin:round;stroke-miterlimit:1.5;"><g><g><path d="M133.333,106.667l106.667,-106.667l106.667,106.667l-106.667,106.666l-106.667,-106.666l-106.666,106.666l-106.667,-106.666l106.667,-106.667l106.666,106.667Z" style="fill:none;"/><clipPath id="_clip1"><path d="M133.333,106.667l106.667,-106.667l106.667,106.667l-106.667,106.666l-106.667,-106.666l-106.666,106.666l-106.667,-106.666l106.667,-106.667l106.666,106.667Z"/></clipPath><g clip-path="url(#_clip1)"><g><circle cx="133.333" cy="106.667" r="45.255" style="fill:none;stroke:#fff;stroke-width:22.63px;"/><circle cx="133.333" cy="106.667" r="79.196" style="fill:none;stroke:#fff;stroke-width:22.63px;"/><circle cx="133.333" cy="106.667" r="113.137" style="fill:none;stroke:#fff;stroke-width:22.63px;"/></g></g><circle cx="133.333" cy="106.667" r="22.627" style="fill:#fff;"/><path id="path3540" d="M46.072,213.575l-34.927,86.143l25.283,0l6.256,-14.987l35.969,0l6.907,14.987l25.674,0l-38.837,-86.143l-26.325,0Zm13.163,24.37l12.25,29.584l-23.198,0l10.948,-29.584Z" style="fill:#fff;fill-rule:nonzero;"/><path id="path4328" d="M85.527,213.575l47.536,106.425l49.099,-106.425l-25.967,0l-23.132,52.129l-21.894,-52.129l-25.642,0Z" style="fill:#fff;fill-rule:nonzero;"/><path id="path2890" d="M194.38,213.575l-38.185,86.143l25.935,0l13.781,-30.919l5.93,0l8.178,30.919l26.586,0l-11.99,-34.014c0,0 27.122,-3.977 27.889,-27.759c-0.875,-25.409 -24.37,-24.37 -24.37,-24.37l-33.754,0Zm17.203,16.551l9.253,0c0,0 7.298,0.879 7.298,7.819c0,6.94 -4.822,11.86 -14.466,12.772c-4.675,0 -9.562,0 -11.322,0l9.237,-20.591Z" style="fill:#fff;fill-rule:nonzero;"/><path d="M144.647,138.747l0,74.453l-11.584,26.105l-11.043,-26.293l0,-74.265c3.539,1.256 7.347,1.939 11.313,1.939c3.967,0 7.775,-0.683 11.314,-1.939Z" style="fill:#fff;"/></g></g><g><g><path d="M666.667,106.667l106.666,-106.667l106.667,106.667l-106.667,106.666l-106.666,-106.666l-106.667,106.666l-106.667,-106.666l106.667,-106.667l106.667,106.667Z" style="fill:none;"/><clipPath id="_clip2"><path d="M666.667,106.667l106.666,-106.667l106.667,106.667l-106.667,106.666l-106.666,-106.666l-106.667,106.666l-106.667,-106.666l106.667,-106.667l106.667,106.667Z"/></clipPath><g clip-path="url(#_clip2)"><g><circle cx="666.667" cy="106.667" r="45.255" style="fill:none;stroke:#fff;stroke-width:22.63px;"/><circle cx="666.667" cy="106.667" r="79.196" style="fill:none;stroke:#fff;stroke-width:22.63px;"/><circle cx="666.667" cy="106.667" r="113.137" style="fill:none;stroke:#fff;stroke-width:22.63px;"/></g></g><circle cx="666.667" cy="106.667" r="22.627" style="fill:#fff;"/><path id="path35401" serif:id="path3540" d="M579.405,213.575l-34.926,86.143l25.282,0l6.256,-14.987l35.969,0l6.907,14.987l25.674,0l-38.836,-86.143l-26.326,0Zm13.163,24.37l12.25,29.584l-23.197,0l10.947,-29.584Z" style="fill:#fff;fill-rule:nonzero;"/><path id="path43281" serif:id="path4328" d="M618.861,213.575l47.535,106.425l49.1,-106.425l-25.967,0l-23.133,52.129l-21.894,-52.129l-25.641,0Z" style="fill:#fff;fill-rule:nonzero;"/><path id="path28901" serif:id="path2890" d="M727.713,213.575l-38.184,86.143l25.934,0l13.782,-30.919l5.929,0l8.178,30.919l26.586,0l-11.989,-34.014c0,0 27.121,-3.977 27.889,-27.759c-0.876,-25.409 -24.371,-24.37 -24.371,-24.37l-33.754,0Zm17.203,16.551l9.253,0c0,0 7.298,0.879 7.298,7.819c0,6.94 -4.822,11.86 -14.466,12.772c-4.675,0 -9.562,0 -11.322,0l9.237,-20.591Z" style="fill:#fff;fill-rule:nonzero;"/><path d="M677.98,138.747l0,74.453l-11.584,26.105l-11.043,-26.293l0,-74.265c3.539,1.256 7.347,1.939 11.314,1.939c3.966,0 7.774,-0.683 11.313,-1.939Z" style="fill:#fff;"/></g></g><clipPath id="_clip3"><rect x="186.667" y="40" width="426.667" height="426.667"/></clipPath><g clip-path="url(#_clip3)"><g id="g5908"><g id="g5889"><path id="rect2723" d="M401.197,46.667c-66.906,0 -120.769,53.863 -120.769,120.769l0,134.189l33.547,0l0,-134.189c0,-48.321 38.901,-87.222 87.222,-87.222c48.321,0 87.223,38.901 87.223,87.222l0,134.189l33.547,0l0,-134.189c0,-66.906 -53.864,-120.769 -120.77,-120.769Z" style="fill:#282828;"/><path id="path3082" d="M401.197,55.431c-63.189,0 -114.06,54.355 -114.06,116.362l0,125.095c0,46.964 29.255,86.832 70.868,103.491c-29.816,-13.576 -50.74,-42.666 -50.74,-77.155l0,-158.015c0,-47.417 38.901,-88.737 87.223,-88.737l13.419,0c48.321,0 87.222,41.32 87.222,88.737l0,158.015c0,34.489 -20.924,63.579 -50.74,77.155c41.614,-16.659 70.868,-56.527 70.868,-103.491l0,-125.095c0,-62.007 -50.871,-116.362 -114.06,-116.362Z" style="fill:url(#_Linear4);"/><path id="path2931" d="M401.197,49.513c-65.033,0 -117.389,52.004 -117.389,116.6l0,130.317c0,48.925 30.109,90.458 72.937,107.812c-30.687,-14.143 -52.221,-44.448 -52.221,-80.377l0,-164.611c0,-49.397 40.036,-96.941 89.768,-96.941l13.81,0c49.732,0 89.768,47.544 89.768,96.941l0,164.611c0,35.929 -21.534,66.234 -52.221,80.377c42.829,-17.354 72.937,-58.887 72.937,-107.812l0,-130.317c0,-64.596 -52.355,-116.6 -117.389,-116.6Z" style="fill:url(#_Linear5);"/><path id="path2861" d="M351.569,80.011c-18.128,11.351 -28.329,30.7 -26.332,37.15c2.152,6.95 14.889,-24.112 50.944,-33.731c27.802,-7.418 -0.002,-18.829 -24.612,-3.419Z" style="fill:url(#_Radial6);"/><path id="path2871" d="M450.825,79.677c18.128,11.351 28.329,30.7 26.332,37.15c-2.152,6.95 -14.889,-24.111 -50.944,-33.731c-27.802,-7.417 0.002,-18.829 24.612,-3.419Z" style="fill:url(#_Radial7);"/><path id="rect2875" d="M401.197,60.931c-63.189,0 -114.06,43.316 -114.06,106.505l0,127.479c0,47.859 29.255,88.488 70.868,105.464c-29.816,-13.835 -50.74,-43.48 -50.74,-78.626l0,-161.026c0,-48.321 38.901,-87.274 87.223,-87.274l13.419,0c48.321,0 87.222,38.953 87.222,87.274l0,161.026c0,35.146 -20.924,64.791 -50.74,78.626c41.614,-16.976 70.868,-57.605 70.868,-105.464l0,-127.479c0,-63.189 -50.871,-106.505 -114.06,-106.505Z" style="fill:url(#_Linear8);"/><path id="path2933" d="M401.197,53.463c-89.206,0 -109.792,77.718 -109.792,112.867c0,105.448 6.862,105.448 6.862,0c0,-77.329 54.876,-107.849 102.93,-107.849c48.054,0 102.93,33.675 102.93,107.849c0,105.448 6.862,105.448 6.862,0c0,-35.149 -20.586,-112.867 -109.792,-112.867Z" style="fill:url(#_Linear9);"/><path id="path2885" d="M401.197,63.638c-87.222,0 -107.351,74.334 -107.351,106.625c0,96.872 6.71,96.872 6.71,0c0,-71.041 53.655,-102.016 100.641,-102.016c46.986,0 100.641,33.874 100.641,102.016c0,96.872 6.71,96.872 6.71,0c0,-32.291 -20.128,-106.625 -107.351,-106.625Z" style="fill:url(#_Linear10);"/><path id="path2897" d="M309.932,94.959c-9.584,17.494 10.09,6.437 14.66,0.912c12.846,-15.53 34.559,-26.787 53.617,-30.462c15.982,-3.081 18.419,-9.252 5.258,-10.273c-26.24,-2.037 -64.347,23.051 -73.535,39.823Z" style="fill:#fff;fill-opacity:0.8;"/><path id="path2901" d="M295.411,123.852c1.016,8.549 17.545,-19.326 30.56,-32.412c15.894,-15.983 39.987,-27.17 51.578,-28.648c20.661,-2.635 10.854,-12.76 -2.096,-10.202c-47.066,9.298 -82.632,49.462 -80.042,71.262Z" style="fill:#fff;fill-opacity:0.6;"/><path id="path2909" d="M491.933,94.839c9.649,17.458 -10.066,6.474 -14.656,0.966c-12.904,-15.482 -34.658,-26.66 -53.729,-30.264c-15.994,-3.022 -20.495,-9.174 -7.338,-10.244c26.233,-2.133 66.473,22.805 75.723,39.542Z" style="fill:#fff;fill-opacity:0.8;"/><path id="path2911" d="M505.994,123.082c-0.984,8.553 -17.616,-19.261 -30.678,-32.299c-15.953,-15.925 -40.087,-27.022 -51.683,-28.458c-20.671,-2.559 -10.975,-12.317 2.056,-10.207c47.139,7.671 82.816,49.155 80.305,70.964Z" style="fill:#fff;fill-opacity:0.6;"/><path id="path2953" d="M350.107,77.128c-23.632,13.496 -36.93,36.504 -34.326,44.173c2.806,8.264 19.409,-28.67 66.41,-40.108c36.243,-8.82 -0.002,-22.388 -32.084,-4.065Z" style="fill:url(#_Radial11);"/><path id="path2957" d="M451.801,76.484c21.803,13.727 34.072,37.128 31.67,44.928c-2.589,8.405 -17.907,-29.16 -61.271,-40.793c-33.437,-8.97 0.002,-22.77 29.601,-4.135Z" style="fill:url(#_Radial12);"/><path id="path3055" d="M589.061,455.941c0,7.411 -84.11,13.419 -187.864,13.419c-103.754,0 -187.864,-6.008 -187.864,-13.419c0,-7.411 84.11,-13.419 187.864,-13.419c103.754,0 187.864,6.008 187.864,13.419Z" style="fill:url(#_Radial13);"/><path id="path3065" d="M589.061,445.877c0,9.264 -84.11,16.774 -187.864,16.774c-103.754,0 -187.864,-7.51 -187.864,-16.774c0,-9.264 84.11,-16.774 187.864,-16.774c103.754,0 187.864,7.51 187.864,16.774Z" style="fill:url(#_Radial14);"/><path id="path3067" d="M589.061,449.232c0,7.411 -84.11,13.419 -187.864,13.419c-103.754,0 -187.864,-6.008 -187.864,-13.419c0,-7.411 84.11,-13.419 187.864,-13.419c103.754,0 187.864,6.008 187.864,13.419Z" style="fill:url(#_Radial15);"/></g><path id="rect1941" d="M535.385,232.864c0,-0.92 -0.746,-1.667 -1.666,-1.667l-265.044,0c-0.919,0 -1.666,0.747 -1.666,1.667l0,217.53c0,0.92 0.747,1.667 1.666,1.667l265.044,0c0.92,0 1.666,-0.747 1.666,-1.667l0,-217.53Z" style="fill:url(#_Linear16);"/><path id="rect2709" d="M535.385,232.864c0,-0.92 -0.746,-1.667 -1.666,-1.667l-265.044,0c-0.919,0 -1.666,0.747 -1.666,1.667l0,217.53c0,0.92 0.747,1.667 1.666,1.667l265.044,0c0.92,0 1.666,-0.747 1.666,-1.667l0,-217.53Z" style="fill:url(#_Linear17);"/><path id="rect2734" d="M535.385,232.864c0,-0.92 -0.746,-1.667 -1.666,-1.667l-265.044,0c-0.919,0 -1.666,0.747 -1.666,1.667l0,217.53c0,0.92 0.747,1.667 1.666,1.667l265.044,0c0.92,0 1.666,-0.747 1.666,-1.667l0,-217.53Z" style="fill:url(#_Linear18);"/><path id="rect2738" d="M535.385,232.864c0,-0.92 -0.746,-1.667 -1.666,-1.667l-265.044,0c-0.919,0 -1.666,0.747 -1.666,1.667l0,217.197c0,0.92 0.747,1.666 1.666,1.666l265.044,0c0.92,0 1.666,-0.746 1.666,-1.666l0,-217.197Z" style="fill:url(#_Linear19);"/><path id="path2727" d="M275.395,231.197c6.034,7.072 60.485,12.621 128.852,12.621c67.428,0 120.977,-5.491 128.279,-12.424c-0.102,-0.01 -0.085,-0.197 -0.19,-0.197l-256.941,0Z" style="fill:#f4f4f4;fill-opacity:0.5;"/><g id="g2798"><path id="path2778" d="M281.481,248.185c-2.519,17.368 -5.335,127.541 3.992,151.13c9.124,23.075 7.984,-110.089 30.224,-131.05c22.474,-21.183 -31.839,-36.462 -34.216,-20.08Z" style="fill:url(#_Radial20);"/><path id="path2790" d="M280.091,249.339c-2.907,20.276 -6.157,148.893 4.607,176.431c10.529,26.938 9.213,-128.519 34.877,-152.99c25.936,-24.728 -36.742,-42.565 -39.484,-23.441Z" style="fill:url(#_Radial21);"/><path id="path2794" d="M277.242,250.332c-3.612,22.781 -7.65,167.281 5.725,198.219c13.083,30.264 11.448,-144.39 43.339,-171.882c32.229,-27.782 -45.656,-47.822 -49.064,-26.337Z" style="fill:url(#_Radial22);"/></g><g id="g2803"><path id="path2805" d="M520.913,248.185c2.519,17.369 5.335,127.541 -3.992,151.13c-9.124,23.075 -7.984,-110.089 -30.223,-131.05c-22.475,-21.183 31.839,-36.462 34.215,-20.08Z" style="fill:url(#_Radial23);"/><path id="path2807" d="M522.303,249.339c2.907,20.276 6.157,148.894 -4.607,176.431c-10.529,26.938 -9.213,-128.519 -34.877,-152.989c-25.936,-24.729 36.742,-42.566 39.484,-23.442Z" style="fill:url(#_Radial24);"/><path id="path2809" d="M525.152,250.332c3.612,22.781 7.651,167.281 -5.724,198.219c-13.084,30.264 -11.449,-144.39 -43.34,-171.882c-32.229,-27.782 45.656,-47.822 49.064,-26.337Z" style="fill:url(#_Radial25);"/></g><path id="rect3077" d="M530.385,422.416l0,26.29c0,1.859 -1.44,3.355 -3.229,3.355l-251.918,0c-1.789,0 -3.229,-1.496 -3.229,-3.355l0,-93.385c0,98.389 258.376,-69.596 258.376,67.095Z" style="fill:url(#_Linear26);"/><path id="path2768" d="M272.155,452.061c6.034,-7.072 60.485,-12.621 128.851,-12.621c67.429,0 120.978,5.49 128.28,12.424c-0.103,0.01 -0.085,0.197 -0.191,0.197l-256.94,0Z" style="fill-opacity:0.5;"/></g></g><text x="295.616px" y="386.729px" style="font-family:'DINCondensed-Bold', 'DIN Condensed';font-weight:700;font-stretch:condensed;font-size:128px;fill-opacity:0.74902;">RC4D</text><defs><linearGradient id="_Linear4" x1="0" y1="0" x2="1" y2="0" gradientUnits="userSpaceOnUse" gradientTransform="matrix(5.01497e-15,81.9007,-81.9007,5.01497e-15,382.313,59.8914)"><stop offset="0" style="stop-color:#b3b3b3;stop-opacity:0.65"/><stop offset="0" style="stop-color:#d9d9d9;stop-opacity:0.323725"/><stop offset="1" style="stop-color:#fff;stop-opacity:0"/></linearGradient><linearGradient id="_Linear5" x1="0" y1="0" x2="1" y2="0" gradientUnits="userSpaceOnUse" gradientTransform="matrix(7.4274,-41.8817,41.8817,7.4274,395.896,132.079)"><stop offset="0" style="stop-color:#b3b3b3;stop-opacity:0.5"/><stop offset="0" style="stop-color:#d9d9d9;stop-opacity:0.24902"/><stop offset="1" style="stop-color:#fff;stop-opacity:0"/></linearGradient><radialGradient id="_Radial6" cx="0" cy="0" r="1" gradientUnits="userSpaceOnUse" gradientTransform="matrix(47.8668,0,0,34.9209,355.673,91.6453)"><stop offset="0" style="stop-color:#686868;stop-opacity:0.8"/><stop offset="1" style="stop-color:#fff;stop-opacity:0"/></radialGradient><radialGradient id="_Radial7" cx="0" cy="0" r="1" gradientUnits="userSpaceOnUse" gradientTransform="matrix(-47.8668,0,0,34.9209,446.721,91.3116)"><stop offset="0" style="stop-color:#686868;stop-opacity:0.8"/><stop offset="1" style="stop-color:#fff;stop-opacity:0"/></radialGradient><linearGradient id="_Linear8" x1="0" y1="0" x2="1" y2="0" gradientUnits="userSpaceOnUse" gradientTransform="matrix(1.00744e-15,-16.4527,16.4527,1.00744e-15,397.47,119.187)"><stop offset="0" style="stop-color:#b3b3b3;stop-opacity:0.5"/><stop offset="0" style="stop-color:#d9d9d9;stop-opacity:0.24902"/><stop offset="1" style="stop-color:#fff;stop-opacity:0"/></linearGradient><linearGradient id="_Linear9" x1="0" y1="0" x2="1" y2="0" gradientUnits="userSpaceOnUse" gradientTransform="matrix(1.50566e-14,-245.893,245.893,1.50566e-14,426.094,192.423)"><stop offset="0" style="stop-color:#b3b3b3;stop-opacity:0.8"/><stop offset="0" style="stop-color:#d9d9d9;stop-opacity:0.398431"/><stop offset="1" style="stop-color:#fff;stop-opacity:0"/></linearGradient><linearGradient id="_Linear10" x1="0" y1="0" x2="1" y2="0" gradientUnits="userSpaceOnUse" gradientTransform="matrix(1.38322e-14,-225.897,225.897,1.38322e-14,425.541,194.234)"><stop offset="0" style="stop-color:#b3b3b3;stop-opacity:0.6"/><stop offset="0" style="stop-color:#d9d9d9;stop-opacity:0.298824"/><stop offset="1" style="stop-color:#fff;stop-opacity:0"/></linearGradient><radialGradient id="_Radial11" cx="0" cy="0" r="1" gradientUnits="userSpaceOnUse" gradientTransform="matrix(62.399,0,0,41.5225,355.457,90.9617)"><stop offset="0" style="stop-color:#686868;stop-opacity:0.4"/><stop offset="1" style="stop-color:#fff;stop-opacity:0"/></radialGradient><radialGradient id="_Radial12" cx="0" cy="0" r="1" gradientUnits="userSpaceOnUse" gradientTransform="matrix(-57.5697,0,0,42.2313,446.866,90.5546)"><stop offset="0" style="stop-color:#686868;stop-opacity:0.4"/><stop offset="1" style="stop-color:#fff;stop-opacity:0"/></radialGradient><radialGradient id="_Radial13" cx="0" cy="0" r="1" gradientUnits="userSpaceOnUse" gradientTransform="matrix(187.864,0,0,13.4188,401.197,455.941)"><stop offset="0" style="stop-color:#282828;stop-opacity:0.4"/><stop offset="1" style="stop-color:#282828;stop-opacity:0"/></radialGradient><radialGradient id="_Radial14" cx="0" cy="0" r="1" gradientUnits="userSpaceOnUse" gradientTransform="matrix(187.864,0,0,16.7735,401.197,445.876)"><stop offset="0" style="stop-color:#282828;stop-opacity:0.4"/><stop offset="1" style="stop-color:#282828;stop-opacity:0"/></radialGradient><radialGradient id="_Radial15" cx="0" cy="0" r="1" gradientUnits="userSpaceOnUse" gradientTransform="matrix(187.864,0,0,13.4188,401.197,449.232)"><stop offset="0" style="stop-color:#282828;stop-opacity:0.4"/><stop offset="1" style="stop-color:#282828;stop-opacity:0"/></radialGradient><linearGradient id="_Linear16" x1="0" y1="0" x2="1" y2="0" gradientUnits="userSpaceOnUse" gradientTransform="matrix(108.377,0,0,108.377,398.906,365.048)"><stop offset="0" style="stop-color:#707070;stop-opacity:1"/><stop offset="1" style="stop-color:#b1b1b1;stop-opacity:1"/></linearGradient><linearGradient id="_Linear17" x1="0" y1="0" x2="1" y2="0" gradientUnits="userSpaceOnUse" gradientTransform="matrix(3.49759e-16,5.712,-5.712,3.49759e-16,401.671,318.781)"><stop offset="0" style="stop-color:#868686;stop-opacity:0.03"/><stop offset="0" style="stop-color:#a8a8a8;stop-opacity:0.03"/><stop offset="0" style="stop-color:#cbcbcb;stop-opacity:0.03"/><stop offset="1" style="stop-color:#fff;stop-opacity:0.03"/></linearGradient><linearGradient id="_Linear18" x1="0" y1="0" x2="1" y2="0" gradientUnits="userSpaceOnUse" gradientTransform="matrix(2.54716,11.4235,-11.4235,2.54716,365.933,304.501)"><stop offset="0" style="stop-color:#868686;stop-opacity:0.03"/><stop offset="0" style="stop-color:#a8a8a8;stop-opacity:0.03"/><stop offset="0" style="stop-color:#cbcbcb;stop-opacity:0.03"/><stop offset="1" style="stop-color:#fff;stop-opacity:0.03"/></linearGradient><linearGradient id="_Linear19" x1="0" y1="0" x2="1" y2="0" gradientUnits="userSpaceOnUse" gradientTransform="matrix(-1.89667,14.28,-14.28,-1.89667,317.27,404.461)"><stop offset="0" style="stop-color:#868686;stop-opacity:0.03"/><stop offset="0" style="stop-color:#a8a8a8;stop-opacity:0.03"/><stop offset="0" style="stop-color:#cbcbcb;stop-opacity:0.03"/><stop offset="1" style="stop-color:#fff;stop-opacity:0.03"/></linearGradient><radialGradient id="_Radial20" cx="0" cy="0" r="1" gradientUnits="userSpaceOnUse" gradientTransform="matrix(37.645,0,0,143.661,288.713,257.916)"><stop offset="0" style="stop-color:#b3b3b3;stop-opacity:0.402778"/><stop offset="0" style="stop-color:#d9d9d9;stop-opacity:0.200599"/><stop offset="1" style="stop-color:#fff;stop-opacity:0"/></radialGradient><radialGradient id="_Radial21" cx="0" cy="0" r="1" gradientUnits="userSpaceOnUse" gradientTransform="matrix(43.4422,0,0,167.711,288.436,260.699)"><stop offset="0" style="stop-color:#b3b3b3;stop-opacity:0.3"/><stop offset="0" style="stop-color:#d9d9d9;stop-opacity:0.149412"/><stop offset="1" style="stop-color:#fff;stop-opacity:0"/></radialGradient><radialGradient id="_Radial22" cx="0" cy="0" r="1" gradientUnits="userSpaceOnUse" gradientTransform="matrix(53.9822,0,0,188.421,287.612,263.095)"><stop offset="0" style="stop-color:#b3b3b3;stop-opacity:0.2"/><stop offset="0" style="stop-color:#d9d9d9;stop-opacity:0.0996078"/><stop offset="1" style="stop-color:#fff;stop-opacity:0"/></radialGradient><radialGradient id="_Radial23" cx="0" cy="0" r="1" gradientUnits="userSpaceOnUse" gradientTransform="matrix(-37.645,0,0,143.661,513.681,257.916)"><stop offset="0" style="stop-color:#b3b3b3;stop-opacity:0.402778"/><stop offset="0" style="stop-color:#d9d9d9;stop-opacity:0.200599"/><stop offset="1" style="stop-color:#fff;stop-opacity:0"/></radialGradient><radialGradient id="_Radial24" cx="0" cy="0" r="1" gradientUnits="userSpaceOnUse" gradientTransform="matrix(-43.4422,0,0,167.711,513.958,260.699)"><stop offset="0" style="stop-color:#b3b3b3;stop-opacity:0.3"/><stop offset="0" style="stop-color:#d9d9d9;stop-opacity:0.149412"/><stop offset="1" style="stop-color:#fff;stop-opacity:0"/></radialGradient><radialGradient id="_Radial25" cx="0" cy="0" r="1" gradientUnits="userSpaceOnUse" gradientTransform="matrix(-53.9822,0,0,188.421,514.782,263.095)"><stop offset="0" style="stop-color:#b3b3b3;stop-opacity:0.2"/><stop offset="0" style="stop-color:#d9d9d9;stop-opacity:0.0996078"/><stop offset="1" style="stop-color:#fff;stop-opacity:0"/></radialGradient><linearGradient id="_Linear26" x1="0" y1="0" x2="1" y2="0" gradientUnits="userSpaceOnUse" gradientTransform="matrix(8.83248e-15,-144.245,144.245,8.83248e-15,386.564,454.652)"><stop offset="0" style="stop-color:#b3b3b3;stop-opacity:0.25"/><stop offset="0" style="stop-color:#d9d9d9;stop-opacity:0.12451"/><stop offset="1" style="stop-color:#fff;stop-opacity:0"/></linearGradient></defs></svg>
